<?xml version="1.0" encoding="utf-8"?>
<!-- Generator: Adobe Illustrator 29.1.0, SVG Export Plug-In . SVG Version: 9.03 Build 55587)  -->
<svg version="1.1" id="Layer_1" xmlns="http://www.w3.org/2000/svg" xmlns:xlink="http://www.w3.org/1999/xlink" x="0px" y="0px"
	 viewBox="0 0 1650 769" style="enable-background:new 0 0 1650 769;" xml:space="preserve">
<g>
	<path d="M247.33,490.54l-2.96,119.21H24.21c0-35.8,2.43-63.54,7.29-83.21c4.86-19.67,12.85-38.75,23.97-57.24
		c11.12-18.49,26.64-38.75,46.57-60.79c26.19-28.72,43.44-49.82,51.76-63.29c8.32-13.47,12.48-28.67,12.48-45.59
		c0-12.59-3.13-22.96-9.39-31.13c-6.26-8.16-14.08-12.25-23.47-12.25c-13.67,0-23.76,6.74-30.27,20.21
		c-6.51,13.48-10.25,35.46-11.24,65.95l-63.01-3.54c0-39.54,4.94-69.34,14.82-89.41s23.31-34.62,40.27-43.67
		c16.96-9.05,35.41-13.57,55.35-13.57c32.78,0,58.52,10.82,77.21,32.46c18.69,21.64,28.04,48.59,28.04,80.85
		c0,17.31-2.84,33.3-8.52,47.95c-5.68,14.66-12.85,26.95-21.5,36.88c-8.65,9.94-23.93,24.25-45.83,42.93
		c-32.95,28.13-53.62,50.46-62.02,66.98c-8.4,16.52-13.34,31.08-14.82,43.67h100.31v-53.41H247.33z"/>
	<path d="M293.53,609.75v-69.34h49.17V268.65h-49.17V199.3h307.61v126.59h-65.72v-57.24H432.14v95.01h74.37V433h-74.37v107.41h52.88
		v69.34H293.53z"/>
	<path d="M975.96,540.41v69.34h-104.7l-77.61-179.7h-39.33v110.36h42.99v69.34H617.7v-69.34h47.19V268.65H617.7V199.3H825
		c39.04,0,67.16,11.76,84.38,35.26c17.21,23.51,25.82,50.12,25.82,79.82c0,46.62-19.85,80.66-59.55,102.09l55.84,123.93H975.96z
		 M754.33,364.54h30.64c37.88,0,56.83-16.13,56.83-48.39c0-15.93-4.32-27.83-12.97-35.7c-8.65-7.87-20.55-11.8-35.7-11.8h-38.79
		V364.54z"/>
	<path d="M991.78,609.75v-69.34h41.26V268.65h-41.26V199.3h302.92v130.13h-65.72v-60.79h-106.49v94.72h85.98v69.34h-85.98v107.7
		h106.49v-61.38h65.72v130.72H991.78z"/>
	<path d="M1329.29,609.75v-69.34h41.26V268.65h-41.26V199.3h302.92v130.13h-65.72v-60.79h-106.49v94.72h85.98v69.34h-85.98v107.7
		h106.49v-61.38h65.72v130.72H1329.29z"/>
</g>
<g>
	<path d="M44.63,148.67V33.09H24.68V13.81H78.7c14.86,0,26,0.85,33.43,2.55c7.43,1.7,13.98,6,19.66,12.91
		c5.68,6.91,8.52,15.01,8.52,24.32c0,7.17-1.69,13.63-5.08,19.39c-3.38,5.76-8.34,10.12-14.88,13.08
		c9.02,2.96,15.96,7.85,20.83,14.68c4.86,6.83,7.29,14.65,7.29,23.44c0,7.61-1.81,14.52-5.43,20.72
		c-3.62,6.21-8.42,11.01-14.41,14.41c-5.99,3.4-12.54,5.69-19.66,6.87c-7.12,1.18-16.82,1.77-29.11,1.77H24.68v-19.28H44.63z
		 M69.13,77.97h15.28c11.67,0,19.81-1.94,24.44-5.82c4.63-3.88,6.94-9.58,6.94-17.12c0-14.63-10.46-21.94-31.39-21.94H69.13V77.97z
		 M69.13,148.67h9.22c12.06,0,20.88-0.57,26.48-1.72c5.6-1.14,10.17-3.84,13.71-8.09c3.54-4.25,5.31-9.7,5.31-16.34
		c0-6.06-1.69-11.14-5.08-15.24c-3.38-4.1-7.74-6.83-13.07-8.2c-5.33-1.37-12.85-2.05-22.58-2.05h-14V148.67z"/>
	<path d="M201.56,33.09v77.12c0,11.97,0.64,20.24,1.93,24.82c1.28,4.58,4.49,8.48,9.63,11.69c5.13,3.21,11.74,4.82,19.83,4.82
		c9.64,0,17.03-1.39,22.17-4.16c5.13-2.77,8.54-6.5,10.21-11.19c1.67-4.69,2.51-12.98,2.51-24.88V33.09h-18.78V13.81h63.47v19.28
		h-20.3v80.56c0,10.86-0.49,18.75-1.46,23.66c-0.97,4.91-3.6,10.05-7.88,15.4c-4.28,5.36-10.31,9.64-18.08,12.85
		c-7.78,3.21-17.23,4.82-28.35,4.82c-12.29,0-22.52-1.5-30.69-4.49c-8.17-2.99-14.31-7-18.43-12.02
		c-4.12-5.02-6.87-10.38-8.23-16.07c-1.36-5.69-2.04-14.52-2.04-26.48V33.09h-20.07V13.81h63.82v19.28H201.56z"/>
	<path d="M381.23,148.67V97.8l-48.3-64.71H313.1V13.81h66.74v19.28h-20.45l35.85,47.65l32.74-47.65H407.6V13.81h64.64v19.28h-21.47
		L405.74,97.8v50.86h22.17v19.28h-68.49v-19.28H381.23z"/>
	<path d="M541.54,90.16c0-22.38,7.7-41.11,23.1-56.18c15.4-15.07,35.47-22.61,60.2-22.61c24.97,0,45.31,7.54,61.02,22.61
		c15.71,15.07,23.57,33.95,23.57,56.62c0,23.12-7.99,42.2-23.98,57.23c-15.98,15.03-36.31,22.55-60.96,22.55
		c-15.71,0-30.16-3.56-43.34-10.69c-13.18-7.13-23.08-17.06-29.69-29.81C544.85,117.14,541.54,103.9,541.54,90.16z M568.26,90.27
		c0,16.92,5.21,31.1,15.63,42.55c10.42,11.45,24.11,17.18,41.07,17.18c16.8,0,30.61-5.85,41.42-17.56
		c10.81-11.71,16.22-25.69,16.22-41.94c0-16.4-5.5-30.27-16.51-41.61c-11.01-11.34-24.83-17.01-41.48-17.01
		c-16.57,0-30.1,5.58-40.6,16.73C573.51,59.76,568.26,73.65,568.26,90.27z"/>
	<path d="M745.6,148.67V33.09h-23.22V13.81h55.4l71.19,119.81V33.09h-22.98V13.81h66.62v19.28h-23.92V169.5h-25.15L765.67,37.94
		v110.73h23.22v19.28h-66.5v-19.28H745.6z"/>
	<path d="M920.61,148.67V33.09h-21V13.81h134.87v46.43h-20.07V33.09h-69.3v45.88h60.32v19.28h-60.32v50.42h69.3v-28.04h20.07v47.32
		H899.61v-19.28H920.61z"/>
	<path d="M1062.96,167.95v-27.26h28.7v23.71c0,8.05-0.66,14.29-1.98,18.73c-1.32,4.43-4.14,8.07-8.46,10.91
		c-4.32,2.84-10.4,4.38-18.26,4.6v-11.52c9.33-1.33,14-6.83,14-16.51c0-0.59-0.04-1.48-0.12-2.66H1062.96z"/>
	<path d="M1273.9,93.59h59.04c0.08,1.99,0.12,3.77,0.12,5.32c0,21.65-7.47,38.97-22.4,51.97c-14.93,13-34.65,19.5-59.15,19.5
		c-29.32,0-51.18-7.92-65.57-23.77c-14.39-15.85-21.58-34.59-21.58-56.24c0-22.68,7.35-41.52,22.05-56.51
		c14.7-15,34.65-22.49,59.85-22.49c22.63,0,41.61,6.54,56.94,19.61V13.81h20.65v50.64h-20.65c-3.89-8.49-10.79-16.05-20.71-22.66
		c-9.92-6.61-21.26-9.92-34.01-9.92c-17.73,0-31.73,5.69-42,17.06c-10.27,11.38-15.4,25.08-15.4,41.11
		c0,18.39,5.85,32.98,17.56,43.77c11.71,10.79,25.8,16.18,42.29,16.18c12.91,0,24.42-3.42,34.54-10.25
		c10.11-6.83,16.02-15.79,17.73-26.87h-29.29V93.59z"/>
	<path d="M1371.91,148.67V33.09h-21V13.81h134.88v46.43h-20.07V33.09h-69.3v45.88h60.32v19.28h-60.32v50.42h69.3v-28.04h20.07v47.32
		H1350.9v-19.28H1371.91z"/>
	<path d="M1550.07,148.67V33.09h-33.49v39.34h-20.07V13.81H1628v58.62h-20.07V33.09h-33.37v115.58h21.12v19.28h-66.39v-19.28
		H1550.07z"/>
</g>
<g>
	<path d="M6.06,706.82c0-12.67,3.92-23.28,11.77-31.81s18.07-12.8,30.67-12.8c12.72,0,23.08,4.27,31.09,12.8
		c8,8.53,12.01,19.22,12.01,32.06c0,13.09-4.07,23.89-12.22,32.4c-8.14,8.51-18.5,12.77-31.06,12.77c-8.01,0-15.37-2.02-22.08-6.05
		c-6.72-4.04-11.76-9.66-15.13-16.88C7.75,722.1,6.06,714.6,6.06,706.82z M19.68,706.89c0,9.58,2.65,17.61,7.97,24.09
		c5.31,6.48,12.29,9.72,20.93,9.72c8.56,0,15.59-3.31,21.1-9.94c5.51-6.63,8.26-14.54,8.26-23.75c0-9.29-2.8-17.14-8.41-23.56
		c-5.61-6.42-12.65-9.63-21.13-9.63c-8.44,0-15.34,3.16-20.69,9.47C22.35,689.61,19.68,697.47,19.68,706.89z"/>
	<path d="M110.27,739.95v-65.44H99.81V663.6h64.14v26.29h-10.22v-15.37h-30.97v25.85h26.69v10.92h-26.69v28.67h10.58v10.92H99.81
		v-10.92H110.27z"/>
	<path d="M209.25,739.95v-65.44h-10.7V663.6h68.72v26.29h-10.22v-15.37h-35.31v25.97h30.73v10.92h-30.73v28.55h35.31v-15.87h10.22
		v26.79h-68.72v-10.92H209.25z"/>
	<path d="M325.77,751.81l2.44,1.13c6.46,2.8,11.43,4.2,14.92,4.2c1.11,0,2.56-0.19,4.34-0.56l-4.4,10.79
		c-1.19,0.21-2.28,0.31-3.27,0.31c-3.92,0-9.33-1.76-16.23-5.29c-5.94-3.02-10.62-4.53-14.03-4.53c-3.53,0-6.36,1.03-8.5,3.1
		l-3.51-5.33c2.34-2.68,5.39-4.43,9.15-5.27c-6.66-2.22-12.3-5.78-16.91-10.7c-4.62-4.91-7.84-10.2-9.66-15.87
		c-1.82-5.67-2.73-11.3-2.73-16.91c0-12.34,3.86-22.87,11.59-31.59s18.01-13.08,30.85-13.08c12.84,0,23.22,4.25,31.15,12.74
		c7.93,8.49,11.89,19.2,11.89,32.12c0,6.86-1.25,13.39-3.75,19.61s-6.78,11.79-12.84,16.72
		C340.21,748.33,333.38,751.14,325.77,751.81z M290.99,706.89c0,9.58,2.65,17.61,7.97,24.09c5.31,6.48,12.29,9.72,20.93,9.72
		c8.56,0,15.59-3.31,21.1-9.94c5.51-6.63,8.26-14.54,8.26-23.75c0-9.29-2.8-17.14-8.41-23.56c-5.61-6.42-12.65-9.63-21.13-9.63
		c-8.44,0-15.34,3.16-20.69,9.47C293.67,689.61,290.99,697.47,290.99,706.89z"/>
	<path d="M389.61,674.51v43.67c0,6.78,0.33,11.46,0.98,14.05c0.65,2.59,2.29,4.8,4.9,6.62s5.98,2.73,10.11,2.73
		c4.91,0,8.68-0.78,11.29-2.35s4.35-3.68,5.2-6.34c0.85-2.66,1.28-7.35,1.28-14.08v-44.29h-9.57V663.6h32.34v10.92H435.8v45.61
		c0,6.15-0.25,10.61-0.74,13.39c-0.5,2.78-1.83,5.69-4.01,8.72c-2.18,3.03-5.25,5.46-9.21,7.28c-3.96,1.82-8.78,2.73-14.45,2.73
		c-6.26,0-11.47-0.85-15.63-2.54c-4.16-1.69-7.29-3.96-9.39-6.81c-2.1-2.84-3.5-5.88-4.19-9.1c-0.69-3.22-1.04-8.22-1.04-15v-44.29
		H366.9V663.6h32.52v10.92H389.61z"/>
	<path d="M502.36,720.19h-29.79l-6.33,19.76h10.05v10.92h-32.58v-10.92h10.01l22.58-66.5h-9.99v-9.85h42.27v9.85h-10.34l23.14,66.5
		h9.25v10.92h-32.4v-10.92h10.28L502.36,720.19z M499.24,709.96l-11-36.51h-1.13l-11.46,36.51H499.24z"/>
	<path d="M542.09,739.95v-65.44h-10.7V663.6h33.83v10.92h-10.17v65.44h25.32v-29.68h11.65v40.59h-60.64v-10.92H542.09z"/>
	<path d="M629.6,706.82c0-12.67,3.92-23.28,11.77-31.81s18.07-12.8,30.67-12.8c12.72,0,23.08,4.27,31.09,12.8
		c8,8.53,12.01,19.22,12.01,32.06c0,13.09-4.07,23.89-12.22,32.4c-8.14,8.51-18.5,12.77-31.06,12.77c-8.01,0-15.37-2.02-22.08-6.05
		c-6.72-4.04-11.76-9.66-15.13-16.88C631.28,722.1,629.6,714.6,629.6,706.82z M643.21,706.89c0,9.58,2.65,17.61,7.97,24.09
		c5.31,6.48,12.29,9.72,20.93,9.72c8.56,0,15.59-3.31,21.1-9.94c5.51-6.63,8.26-14.54,8.26-23.75c0-9.29-2.8-17.14-8.41-23.56
		c-5.61-6.42-12.65-9.63-21.13-9.63c-8.44,0-15.34,3.16-20.69,9.47C645.89,689.61,643.21,697.47,643.21,706.89z"/>
	<path d="M734.05,739.95v-65.44h-11.35V663.6h33.59c7.01,0,12.58,0.58,16.7,1.73c4.12,1.15,7.53,3.58,10.23,7.28
		c2.69,3.7,4.04,8.31,4.04,13.83c0,11.54-5.68,18.8-17.04,21.77l14.61,31.75h10.11v10.92h-17.91l-18.83-40.78h-11.65v29.86h10.58
		v10.92h-34.42v-10.92H734.05z M746.53,699.17h9.75c4.72,0,8.19-0.32,10.43-0.97c2.24-0.65,4.07-1.97,5.5-3.95s2.14-4.65,2.14-8
		c0-2.84-0.72-5.25-2.17-7.21c-1.45-1.96-3.23-3.21-5.35-3.73c-2.12-0.52-5.36-0.78-9.72-0.78h-10.58V699.17z"/>
	<path d="M837.54,739.95v-65.44h-10.7V663.6h33.83v10.92H850.5v65.44h25.32v-29.68h11.65v40.59h-60.64v-10.92H837.54z"/>
	<path d="M902.58,739.95v-65.44h-10.7V663.6h68.72v26.29h-10.22v-15.37h-35.31v25.97h30.73v10.92h-30.73v28.55h35.31v-15.87h10.22
		v26.79h-68.72v-10.92H902.58z"/>
	<path d="M968.86,750.87v-31.68h10.34v7.72c4.95,9.5,11.43,14.24,19.44,14.24c4.08,0,7.53-1.32,10.34-3.95
		c2.81-2.64,4.22-6.09,4.22-10.35c0-4.14-1.15-7.12-3.45-8.94c-2.3-1.82-6.64-3.63-13.02-5.43c-7.41-2.09-12.9-4.07-16.47-5.93
		c-3.57-1.86-6.41-4.52-8.53-7.97c-2.12-3.45-3.18-7.54-3.18-12.26c0-7.32,2.31-13.17,6.92-17.54c4.62-4.37,10.41-6.56,17.39-6.56
		c6.62,0,12.76,2.26,18.43,6.78v-5.83h10.11v26.48h-10.11v-6.09c-4.24-6.73-10.09-10.1-17.54-10.1c-4.52,0-7.99,1.1-10.4,3.29
		c-2.42,2.2-3.63,4.82-3.63,7.87c0,2.34,0.61,4.4,1.84,6.18c1.23,1.78,2.79,3.08,4.7,3.92c1.9,0.84,5.65,2.01,11.24,3.51
		c7.29,2,12.58,3.87,15.87,5.61c3.29,1.74,6.12,4.63,8.5,8.69c2.38,4.06,3.57,8.72,3.57,13.99c0,7.45-2.49,13.6-7.46,18.45
		c-4.97,4.85-11.13,7.28-18.46,7.28c-7.53,0-14.31-2.86-20.33-8.59v7.21H968.86z"/>
	<path d="M1033.48,750.87v-31.68h10.34v7.72c4.95,9.5,11.43,14.24,19.44,14.24c4.08,0,7.53-1.32,10.34-3.95
		c2.81-2.64,4.22-6.09,4.22-10.35c0-4.14-1.15-7.12-3.45-8.94c-2.3-1.82-6.64-3.63-13.02-5.43c-7.41-2.09-12.9-4.07-16.47-5.93
		c-3.57-1.86-6.41-4.52-8.53-7.97c-2.12-3.45-3.18-7.54-3.18-12.26c0-7.32,2.31-13.17,6.92-17.54c4.62-4.37,10.41-6.56,17.39-6.56
		c6.62,0,12.76,2.26,18.43,6.78v-5.83h10.11v26.48h-10.11v-6.09c-4.24-6.73-10.09-10.1-17.54-10.1c-4.52,0-7.99,1.1-10.4,3.29
		c-2.42,2.2-3.63,4.82-3.63,7.87c0,2.34,0.61,4.4,1.84,6.18c1.23,1.78,2.79,3.08,4.7,3.92c1.9,0.84,5.65,2.01,11.24,3.51
		c7.29,2,12.58,3.87,15.87,5.61c3.29,1.74,6.12,4.63,8.5,8.69c2.38,4.06,3.57,8.72,3.57,13.99c0,7.45-2.49,13.6-7.46,18.45
		c-4.97,4.85-11.13,7.28-18.46,7.28c-7.53,0-14.31-2.86-20.33-8.59v7.21H1033.48z"/>
	<path d="M1107.91,739.95v-65.44h-10.7V663.6h68.72v26.29h-10.22v-15.37h-35.31v25.97h30.73v10.92h-30.73v28.55h35.31v-15.87h10.22
		v26.79h-68.72v-10.92H1107.91z"/>
	<path d="M1182.87,739.95v-65.44h-11.35V663.6h33.59c7.01,0,12.58,0.58,16.71,1.73c4.12,1.15,7.53,3.58,10.22,7.28
		c2.69,3.7,4.04,8.31,4.04,13.83c0,11.54-5.68,18.8-17.04,21.77l14.61,31.75h10.11v10.92h-17.91L1207,710.08h-11.65v29.86h10.58
		v10.92h-34.42v-10.92H1182.87z M1195.35,699.17h9.75c4.72,0,8.19-0.32,10.43-0.97s4.07-1.97,5.5-3.95s2.14-4.65,2.14-8
		c0-2.84-0.72-5.25-2.17-7.21c-1.45-1.96-3.23-3.21-5.35-3.73c-2.12-0.52-5.36-0.78-9.72-0.78h-10.58V699.17z"/>
	<path d="M1301.97,751.74l-27.78-77.23h-10.23V663.6h32.64v10.92h-9.55l21.06,58.6l20.5-58.6h-9.65V663.6h31.75v10.92h-10.04
		l-27.21,77.23H1301.97z"/>
	<path d="M1400.77,720.19h-29.79l-6.33,19.76h10.05v10.92h-32.58v-10.92h10.01l22.58-66.5h-9.99v-9.85h42.27v9.85h-10.34l23.14,66.5
		h9.25v10.92h-32.4v-10.92h10.28L1400.77,720.19z M1397.66,709.96l-11-36.51h-1.13l-11.46,36.51H1397.66z"/>
	<path d="M1440.51,739.95v-65.44h-10.7V663.6h33.83v10.92h-10.17v65.44h25.32v-29.68h11.65v40.59h-60.64v-10.92H1440.51z"/>
	<path d="M1515.83,674.51v43.67c0,6.78,0.33,11.46,0.98,14.05c0.65,2.59,2.29,4.8,4.9,6.62c2.62,1.82,5.98,2.73,10.11,2.73
		c4.91,0,8.68-0.78,11.29-2.35s4.35-3.68,5.2-6.34c0.85-2.66,1.28-7.35,1.28-14.08v-44.29h-9.57V663.6h32.34v10.92h-10.34v45.61
		c0,6.15-0.25,10.61-0.74,13.39c-0.5,2.78-1.83,5.69-4.01,8.72c-2.18,3.03-5.25,5.46-9.21,7.28c-3.96,1.82-8.78,2.73-14.45,2.73
		c-6.26,0-11.47-0.85-15.63-2.54c-4.16-1.69-7.29-3.96-9.39-6.81c-2.1-2.84-3.5-5.88-4.19-9.1s-1.04-8.22-1.04-15v-44.29h-10.22
		V663.6h32.52v10.92H1515.83z"/>
	<path d="M1587.94,739.95v-65.44h-10.7V663.6h68.72v26.29h-10.22v-15.37h-35.31v25.97h30.73v10.92h-30.73v28.55h35.31v-15.87h10.22
		v26.79h-68.72v-10.92H1587.94z"/>
</g>
<g>
</g>
<g>
</g>
<g>
</g>
<g>
</g>
<g>
</g>
<g>
</g>
<g>
</g>
<g>
</g>
<g>
</g>
<g>
</g>
<g>
</g>
<g>
</g>
<g>
</g>
<g>
</g>
<g>
</g>
</svg>
