<?xml version="1.0" encoding="utf-8"?>
<!-- Generator: Adobe Illustrator 30.2.1, SVG Export Plug-In . SVG Version: 9.03 Build 0)  -->
<svg version="1.1" id="Layer_1" xmlns="http://www.w3.org/2000/svg" xmlns:xlink="http://www.w3.org/1999/xlink" x="0px" y="0px"
	 viewBox="0 0 1143.97 577.68" style="enable-background:new 0 0 1143.97 577.68;" xml:space="preserve">
<g>
	<path d="M176.85,351.01v42.74c0,31.19-13.6,55.44-40.49,55.44c-28.18,0-64.78-33.88-83.89-33.88c-14.9,0-15.87,13.48-15.87,28.88
		H17.17c0-38.5,3.24-77.39,31.42-99.72l57.98-45.43c14.9-11.94,26.88-31.19,26.88-53.13c0-31.19-18.79-47.36-43.08-47.36
		c-14.9,0-35.95,5.39-42.75,24.26c11.01,3.85,19.11,8.47,19.11,23.87c0,14.25-10.04,25.03-22.35,25.03
		c-15.87,0-24.94-16.17-24.94-34.65c0-48.51,42.43-65.07,75.79-65.07c40.49,0,78.38,21.18,78.38,75.46
		c0,36.96-17.81,56.6-42.75,76.23c-25.59,20.02-88.75,44.66-89.07,74.69c8.75-6.93,17.81-10.01,27.21-10.01
		c21.38,0,44.05,13.86,68.34,13.86c9.72,0,18.46-8.47,18.46-18.87v-32.34H176.85z"/>
	<path d="M209.88,202.39v-25.8H410.7v98.95h-20.08c-1.62-31.19-4.21-73.15-37.9-73.15h-69.64v88.17h30.45
		c11.98,0,19.43-10.78,19.43-22.72v-25.8h18.79v127.44h-19.11v-15.02c0-18.1-1.94-36.58-20.41-36.58h-29.15v85.86
		c0,10.78,4.53,13.86,12.63,13.86h25.91v25.8H209.88v-25.8h24.62c6.48,0,11.34-6.54,11.34-14.25V216.64
		c0-7.7-4.86-14.25-11.34-14.25H209.88z"/>
	<path d="M454.41,417.61c6.48,0,11.34-6.54,11.34-14.25V216.64c0-7.7-4.86-14.25-11.34-14.25H429.8v-25.8h141.54
		c37.25,0,66.4,21.95,66.4,69.3c0,41.58-21.7,60.06-54.74,65.84c25.59,5.01,33.36,15.02,36.28,45.43l4.86,48.51
		c0.65,8.09,2.59,12.32,10.04,12.32c7.45,0,11.01-5.01,11.01-13.86v-44.28h21.7v33.11c0,25.03-0.32,56.21-41.13,56.21
		c-21.7,0-38.87-12.32-41.46-39.27l-5.51-58.91c-1.29-16.17-11.34-29.65-25.59-29.65h-49.88v82.39c0,10.78,4.53,13.86,12.63,13.86
		h22.67v25.8H429.8v-25.8H454.41z M503.32,295.18h57.33c21.38,0,37.25-22.72,37.25-47.36c0-23.49-14.9-45.43-35.95-45.43h-58.63
		V295.18z"/>
	<path d="M754.33,202.39v88.55h36.6c12.31,0,19.76-10.78,19.76-22.72v-26.18h18.79v127.44h-19.11v-15.02
		c0-18.1-2.27-36.58-20.73-36.58h-35.3v98.95h79.03c33.69,0,36.6-41.97,37.9-82.78h20.41v109.34H681.13v-25.8h24.62
		c6.48,0,11.34-6.54,11.34-14.25V216.64c0-10.4-4.86-14.25-11.34-14.25h-24.62v-25.8h207.29v98.95h-20.41
		c-1.3-31.19-4.21-73.15-37.9-73.15H754.33z"/>
	<path d="M992.07,202.39v88.55h36.6c12.31,0,19.76-10.78,19.76-22.72v-26.18h18.79v127.44h-19.11v-15.02
		c0-18.1-2.27-36.58-20.73-36.58h-35.3v98.95h79.03c33.69,0,36.6-41.97,37.9-82.78h20.41v109.34H918.87v-25.8h24.62
		c6.48,0,11.34-6.54,11.34-14.25V216.64c0-10.4-4.86-14.25-11.34-14.25h-24.62v-25.8h207.29v98.95h-20.41
		c-1.3-31.19-4.21-73.15-37.9-73.15H992.07z"/>
</g>
<g>
	<path d="M218.12,30.23h25.24c19.97,0,30.14,10.53,30.14,31.41c0,12.71-3.63,20.7-12.71,27.05c10.53,5.27,14.89,14.16,14.89,30.14
		c0,12.17-2.9,20.88-8.9,26.51c-4.9,4.54-9.99,5.99-21.79,5.99h-26.87V30.23z M240.09,80.35c5.63,0,8.17-0.73,10.71-3.09
		c3.27-3.09,4.9-7.99,4.9-14.89c0-10.35-3.99-15.25-12.53-15.25h-6.9v33.23H240.09z M242.99,134.45c10.17,0,14.52-5.08,14.52-17.61
		c0-7.81-2-13.8-5.81-16.89c-2.36-2-5.27-2.72-10.89-2.72h-4.54v37.22H242.99z"/>
	<path d="M347.75,30.23v81.7c0,17.97-1.45,24.51-7.26,31.59c-4.9,5.99-12.71,9.62-21.06,9.62c-8.53,0-16.34-3.63-21.24-9.62
		c-5.81-7.08-7.26-13.8-7.26-31.59v-81.7h18.16v79.71c0,11.44,0.36,16.89,1.27,19.43c1.45,4.36,4.72,6.9,9.08,6.9
		c4.54,0,7.99-2.91,9.26-7.99c0.54-2.36,0.91-8.17,0.91-18.34V30.23H347.75z"/>
	<path d="M401.13,151.34h-18.16v-49.02l-22.7-72.08h18.88l12.89,47.57l12.53-47.57h18.34l-21.79,72.08V151.34z"/>
	<path d="M522.06,111.94c0,17.97-1.45,24.51-7.26,31.59c-4.9,5.99-12.71,9.62-21.06,9.62c-8.53,0-16.34-3.63-21.24-9.62
		c-5.81-7.08-7.26-13.8-7.26-31.59v-42.3c0-17.79,1.45-24.51,7.26-31.59c4.9-5.99,12.71-9.62,21.24-9.62
		c8.35,0,16.34,3.63,21.06,9.62c5.81,7.08,7.26,13.62,7.26,31.59V111.94z M483.38,109.94c0,11.44,0.36,16.89,1.27,19.43
		c1.45,4.36,4.72,6.9,9.08,6.9c4.54,0,7.99-2.91,9.26-7.99c0.54-2.36,0.91-8.17,0.91-18.34V71.63c0-11.8-0.36-16.89-1.27-19.43
		c-1.45-4.36-4.72-6.9-8.9-6.9c-4.72,0-8.17,2.91-9.44,7.99c-0.54,2.36-0.91,8.53-0.91,18.34V109.94z"/>
	<path d="M581.06,151.34l-26.33-74.8v74.8h-16.89V30.23h18.34l24.87,71.9v-71.9h16.89v121.1H581.06z"/>
	<path d="M663.5,47.12h-31.23v33.04h22.51v16.89h-22.51v37.4h31.23v16.89h-49.39V30.23h49.39V47.12z"/>
	<path d="M695.27,151.34l-9.44,21.06h-8.17l6.35-21.06h-6.35v-18.7h17.61V151.34z"/>
	<path d="M799.3,151.34h-8.9l-3.45-9.62c-5.08,8.35-10.17,11.44-19.06,11.44c-8.71,0-15.98-3.81-19.97-10.35
		c-3.99-6.9-5.45-15.07-5.45-30.14v-42.3c0-18.88,1.27-25.06,7.26-32.32c4.9-6.17,12.71-9.62,21.24-9.62
		c13.44,0,23.79,7.81,27.05,20.52c1.09,4.36,1.27,6.35,1.27,20.88h-18.34c0-7.26-0.18-11.98-0.36-14.71
		c-0.73-5.81-4.54-9.62-9.8-9.62c-4.54,0-7.99,2.91-9.26,7.99c-0.54,2.18-0.91,8.53-0.91,18.16v38.31c0,9.08,0.54,16.89,1.27,19.25
		c1.27,4.36,4.72,6.9,9.08,6.9c4.54,0,8.17-2.9,9.26-7.81c0.54-2.54,0.91-8.35,0.91-18.34v-4.9h-11.08V89.97h29.23V151.34z"/>
	<path d="M864.85,47.12h-31.23v33.04h22.51v16.89h-22.51v37.4h31.23v16.89h-49.39V30.23h49.39V47.12z"/>
	<path d="M913.14,151.34h-18.16V47.12h-19.25V30.23h57.01v16.89h-19.61V151.34z"/>
</g>
<g>
	<path d="M92.04,517.07c0,12.85-1.04,17.52-5.19,22.58c-3.5,4.28-9.09,6.88-15.06,6.88c-6.1,0-11.68-2.6-15.19-6.88
		c-4.15-5.06-5.19-9.86-5.19-22.58v-30.24c0-12.72,1.04-17.52,5.19-22.58c3.5-4.28,9.08-6.88,15.19-6.88
		c5.97,0,11.68,2.6,15.06,6.88c4.15,5.06,5.19,9.73,5.19,22.58V517.07z M64.39,515.64c0,8.18,0.26,12.07,0.91,13.89
		c1.04,3.12,3.37,4.93,6.49,4.93c3.24,0,5.71-2.08,6.62-5.71c0.39-1.69,0.65-5.84,0.65-13.11v-27.39c0-8.44-0.26-12.07-0.91-13.89
		c-1.04-3.12-3.37-4.93-6.36-4.93c-3.37,0-5.84,2.08-6.75,5.71c-0.39,1.69-0.65,6.1-0.65,13.11V515.64z"/>
	<path d="M138.24,470.73H116.3v23.62h15.96v12.07H116.3v38.81h-12.98v-86.57h34.91V470.73z"/>
	<path d="M204.43,470.73H182.1v23.62h16.09v12.07H182.1v26.74h22.32v12.07h-35.3v-86.57h35.3V470.73z"/>
	<path d="M257.25,551.85c-7.53-0.13-11.55-2.08-14.41-7.14c-3.11,1.3-5.45,1.82-8.57,1.82c-6.1,0-11.68-2.47-15.19-6.88
		c-4.15-5.06-5.19-9.86-5.19-22.58v-30.24c0-12.72,1.04-17.52,5.19-22.58c3.5-4.28,9.08-6.88,15.19-6.88
		c5.97,0,11.68,2.6,15.06,6.88c4.15,5.06,5.19,9.73,5.19,22.58v30.24c0,10.64-0.65,15.06-2.85,19.21c1.43,1.69,2.73,2.34,5.58,2.73
		V551.85z M226.88,515.64c0,8.18,0.26,12.07,0.91,13.89c1.04,3.12,3.37,4.93,6.49,4.93c3.24,0,5.71-2.08,6.62-5.71
		c0.39-1.69,0.65-5.84,0.65-13.11v-27.39c0-8.44-0.26-12.07-0.91-13.89c-1.04-3.12-3.37-4.93-6.36-4.93c-3.37,0-5.84,2.08-6.75,5.71
		c-0.39,1.69-0.65,6.1-0.65,13.11V515.64z"/>
	<path d="M306.31,458.66v58.41c0,12.85-1.04,17.52-5.19,22.58c-3.5,4.28-9.09,6.88-15.06,6.88c-6.1,0-11.68-2.6-15.19-6.88
		c-4.15-5.06-5.19-9.86-5.19-22.58v-58.41h12.98v56.98c0,8.18,0.26,12.07,0.91,13.89c1.04,3.12,3.38,4.93,6.49,4.93
		c3.24,0,5.71-2.08,6.62-5.71c0.39-1.69,0.65-5.84,0.65-13.11v-56.98H306.31z"/>
	<path d="M330.71,526.15l-2.99,19.08h-12.85l14.15-86.57h16.87l15.06,86.57h-13.37l-2.99-19.08H330.71z M337.46,479.56l-4.93,34.53
		h10.12L337.46,479.56z"/>
	<path d="M404.3,545.23h-34.52v-86.57h12.98v74.5h21.55V545.23z"/>
	<path d="M475.04,517.07c0,12.85-1.04,17.52-5.19,22.58c-3.5,4.28-9.09,6.88-15.06,6.88c-6.1,0-11.68-2.6-15.19-6.88
		c-4.15-5.06-5.19-9.86-5.19-22.58v-30.24c0-12.72,1.04-17.52,5.19-22.58c3.5-4.28,9.09-6.88,15.19-6.88
		c5.97,0,11.68,2.6,15.06,6.88c4.15,5.06,5.19,9.73,5.19,22.58V517.07z M447.39,515.64c0,8.18,0.26,12.07,0.91,13.89
		c1.04,3.12,3.37,4.93,6.49,4.93c3.24,0,5.71-2.08,6.62-5.71c0.39-1.69,0.65-5.84,0.65-13.11v-27.39c0-8.44-0.26-12.07-0.91-13.89
		c-1.04-3.12-3.38-4.93-6.36-4.93c-3.37,0-5.84,2.08-6.75,5.71c-0.39,1.69-0.65,6.1-0.65,13.11V515.64z"/>
	<path d="M499.31,545.23h-12.98v-86.57h18.17c15.06,0,21.68,7.79,21.68,25.05c0,11.16-2.34,17.13-8.7,21.81l9.99,39.72h-13.76
		l-8.18-36.21h-6.23V545.23z M503.46,496.95c4.41,0,6.1-0.65,7.53-2.73c1.3-2.08,2.21-5.97,2.21-10.38c0-4.67-0.91-8.83-2.6-10.77
		c-1.3-1.82-2.98-2.34-7.14-2.34h-4.15v26.22H503.46z"/>
	<path d="M594.31,545.23h-34.52v-86.57h12.98v74.5h21.55V545.23z"/>
	<path d="M637.14,470.73h-22.32v23.62h16.09v12.07h-16.09v26.74h22.32v12.07h-35.3v-86.57h35.3V470.73z"/>
	<path d="M673.61,479.95c-0.78-7.79-2.73-10.51-7.53-10.51c-4.41,0-7.27,3.37-7.27,8.57c0,5.97,2.34,9.47,11.55,18.04
		c13.5,12.33,16.74,17.78,16.74,28.29c0,13.24-8.31,22.19-20.51,22.19c-12.72,0-21.16-9.21-21.54-23.36l12.33-2.21
		c0.39,9.08,3.37,13.5,9.21,13.5c4.8,0,7.92-3.63,7.92-9.47c0-3.25-1.17-6.36-3.38-9.35c-2.08-2.73-2.86-3.63-10.12-10.25
		c-10.9-10.12-14.8-17-14.8-26.61c0-12.85,8.18-21.42,20.38-21.42c11.42,0,18.04,7.01,19.6,20.77L673.61,479.95z"/>
	<path d="M724.09,479.95c-0.78-7.79-2.73-10.51-7.53-10.51c-4.41,0-7.27,3.37-7.27,8.57c0,5.97,2.34,9.47,11.55,18.04
		c13.5,12.33,16.74,17.78,16.74,28.29c0,13.24-8.31,22.19-20.51,22.19c-12.72,0-21.16-9.21-21.54-23.36l12.33-2.21
		c0.39,9.08,3.38,13.5,9.21,13.5c4.8,0,7.92-3.63,7.92-9.47c0-3.25-1.17-6.36-3.38-9.35c-2.08-2.73-2.86-3.63-10.12-10.25
		c-10.9-10.12-14.8-17-14.8-26.61c0-12.85,8.18-21.42,20.38-21.42c11.42,0,18.04,7.01,19.6,20.77L724.09,479.95z"/>
	<path d="M781.85,470.73h-22.32v23.62h16.09v12.07h-16.09v26.74h22.32v12.07h-35.3v-86.57h35.3V470.73z"/>
	<path d="M804.69,545.23h-12.98v-86.57h18.17c15.06,0,21.67,7.79,21.67,25.05c0,11.16-2.34,17.13-8.7,21.81l9.99,39.72H819.1
		l-8.18-36.21h-6.23V545.23z M808.84,496.95c4.41,0,6.1-0.65,7.53-2.73c1.3-2.08,2.21-5.97,2.21-10.38c0-4.67-0.91-8.83-2.6-10.77
		c-1.3-1.82-2.99-2.34-7.14-2.34h-4.15v26.22H808.84z"/>
	<path d="M878.15,545.23l-16.61-86.57h13.24l9.99,55.42l8.83-55.42h12.85l-14.8,86.57H878.15z"/>
	<path d="M924.35,526.15l-2.99,19.08h-12.85l14.15-86.57h16.87l15.06,86.57h-13.37l-2.99-19.08H924.35z M931.1,479.56l-4.93,34.53
		h10.12L931.1,479.56z"/>
	<path d="M997.95,545.23h-34.52v-86.57h12.98v74.5h21.55V545.23z"/>
	<path d="M1047,458.66v58.41c0,12.85-1.04,17.52-5.19,22.58c-3.5,4.28-9.08,6.88-15.06,6.88c-6.1,0-11.68-2.6-15.19-6.88
		c-4.15-5.06-5.19-9.86-5.19-22.58v-58.41h12.98v56.98c0,8.18,0.26,12.07,0.91,13.89c1.04,3.12,3.37,4.93,6.49,4.93
		c3.25,0,5.71-2.08,6.62-5.71c0.39-1.69,0.65-5.84,0.65-13.11v-56.98H1047z"/>
	<path d="M1093.99,470.73h-22.32v23.62h16.09v12.07h-16.09v26.74h22.32v12.07h-35.3v-86.57h35.3V470.73z"/>
</g>
<g>
</g>
<g>
</g>
<g>
</g>
<g>
</g>
<g>
</g>
<g>
</g>
<g>
</g>
<g>
</g>
<g>
</g>
<g>
</g>
<g>
</g>
<g>
</g>
<g>
</g>
<g>
</g>
<g>
</g>
</svg>
