<?xml version="1.0" encoding="utf-8"?>
<!-- Generator: Adobe Illustrator 29.2.1, SVG Export Plug-In . SVG Version: 9.03 Build 55982)  -->
<svg version="1.1" id="Layer_1" xmlns="http://www.w3.org/2000/svg" xmlns:xlink="http://www.w3.org/1999/xlink" x="0px" y="0px"
	 viewBox="0 0 1650 769" style="enable-background:new 0 0 1650 769;" xml:space="preserve">
<g>
	<path d="M22.77,640.85v-79.94h58.72v-313.3H22.77v-79.94h367.36V313.6h-78.49v-65.99H188.31v109.53h88.82v79.94h-88.82v123.82
		h63.15v79.94H22.77z"/>
	<path d="M837.76,560.91v79.94H712.73l-92.68-207.16h-46.97v127.22h51.34v79.94H409.9v-79.94h56.36v-313.3H409.9v-79.94h247.57
		c46.62,0,80.21,13.55,100.77,40.65c20.55,27.1,30.83,57.78,30.83,92.02c0,53.75-23.71,92.98-71.11,117.7l66.69,142.87H837.76z
		 M573.08,358.17h36.59c45.24,0,67.87-18.59,67.87-55.79c0-18.37-5.16-32.09-15.49-41.16c-10.33-9.07-24.54-13.61-42.64-13.61
		h-46.33V358.17z"/>
	<path d="M856.64,640.85v-79.94h49.28v-313.3h-49.28v-79.94h361.76v150.01h-78.49v-70.07h-127.18v109.19h102.69v79.94h-102.69
		v124.16h127.18v-70.75h78.49v150.69H856.64z"/>
	<path d="M1259.71,640.85v-79.94h49.28v-313.3h-49.28v-79.94h361.76v150.01h-78.49v-70.07h-127.18v109.19h102.69v79.94h-102.69
		v124.16h127.18v-70.75h78.49v150.69H1259.71z"/>
</g>
<g>
	<path d="M41.42,139.88V47.78H26.9V32.42h39.3c10.81,0,18.91,0.68,24.32,2.03c5.4,1.35,10.17,4.78,14.3,10.29
		c4.13,5.5,6.2,11.96,6.2,19.38c0,5.71-1.23,10.86-3.69,15.45s-6.07,8.07-10.82,10.42c6.56,2.36,11.61,6.26,15.15,11.7
		c3.54,5.45,5.3,11.67,5.3,18.67c0,6.06-1.32,11.57-3.95,16.51c-2.63,4.94-6.13,8.77-10.48,11.48c-4.36,2.71-9.12,4.53-14.3,5.47
		c-5.18,0.94-12.24,1.41-21.18,1.41H26.9v-15.36H41.42z M59.24,83.54h11.12c8.49,0,14.41-1.55,17.78-4.64
		c3.37-3.09,5.05-7.64,5.05-13.64c0-11.66-7.61-17.48-22.83-17.48H59.24V83.54z M59.24,139.88h6.71c8.77,0,15.19-0.46,19.27-1.37
		c4.07-0.91,7.4-3.06,9.97-6.45c2.57-3.38,3.86-7.73,3.86-13.02c0-4.83-1.23-8.87-3.69-12.14s-5.63-5.44-9.51-6.53
		c-3.88-1.09-9.35-1.63-16.42-1.63H59.24V139.88z"/>
	<path d="M155.58,47.78v61.46c0,9.54,0.47,16.13,1.4,19.78c0.93,3.65,3.27,6.75,7,9.31c3.73,2.56,8.54,3.84,14.43,3.84
		c7.02,0,12.39-1.1,16.13-3.31c3.73-2.21,6.21-5.18,7.43-8.92c1.22-3.74,1.82-10.34,1.82-19.82V47.78h-13.67V32.42h46.17v15.36
		h-14.77v64.19c0,8.65-0.35,14.94-1.06,18.85c-0.71,3.92-2.62,8.01-5.73,12.27c-3.11,4.27-7.5,7.68-13.16,10.24
		c-5.66,2.56-12.53,3.84-20.63,3.84c-8.94,0-16.38-1.19-22.32-3.58c-5.94-2.38-10.41-5.58-13.41-9.58c-3-4-4.99-8.27-5.98-12.8
		c-0.99-4.53-1.49-11.57-1.49-21.1V47.78h-14.6V32.42h46.43v15.36H155.58z"/>
	<path d="M286.29,139.88V99.35l-35.14-51.57h-14.43V32.42h48.55v15.36H270.4l26.08,37.97l23.82-37.97h-14.82V32.42h47.02v15.36
		h-15.62l-32.76,51.57v40.53h16.13v15.36h-49.82v-15.36H286.29z"/>
	<path d="M428.29,139.88V47.78h-24.36v31.35h-14.6V32.42h95.66v46.71h-14.6V47.78h-24.27v92.09h15.36v15.36h-48.29v-15.36H428.29z"
		/>
	<path d="M531.19,156.48L501.11,47.78h-14.17V32.42h45.15v15.36h-14.16l22.35,80.35l21.47-80.35h-14.05V32.42h54.24v15.36h-13.88
		l21.56,80.35l21.92-80.35h-14.07V32.42h43.46v15.36h-13.92l-29.49,108.69h-16.9l-26.57-97.13l-26.4,97.13H531.19z"/>
	<path d="M660.77,93.26c0-17.84,5.6-32.76,16.81-44.77c11.2-12.01,25.8-18.01,43.8-18.01c18.16,0,32.96,6,44.39,18.01
		c11.43,12.01,17.15,27.05,17.15,45.12c0,18.42-5.81,33.63-17.44,45.61c-11.63,11.98-26.41,17.97-44.35,17.97
		c-11.43,0-21.94-2.84-31.53-8.52c-9.59-5.68-16.79-13.6-21.6-23.75C663.17,114.76,660.77,104.21,660.77,93.26z M680.2,93.34
		c0,13.48,3.79,24.78,11.37,33.91c7.58,9.12,17.54,13.69,29.88,13.69c12.22,0,22.27-4.66,30.13-14c7.86-9.33,11.8-20.47,11.8-33.42
		c0-13.07-4-24.12-12.01-33.16c-8.01-9.04-18.07-13.55-30.17-13.55c-12.05,0-21.9,4.45-29.54,13.33
		C684.02,69.03,680.2,80.1,680.2,93.34z"/>
	<path d="M792.5,155.24v-21.72h20.88v18.9c0,6.42-0.48,11.39-1.44,14.92c-0.96,3.53-3.01,6.43-6.15,8.7
		c-3.14,2.27-7.57,3.49-13.28,3.66v-9.18c6.79-1.06,10.19-5.45,10.19-13.16c0-0.47-0.03-1.18-0.08-2.12H792.5z"/>
	<path d="M945.95,95.99h42.95c0.06,1.59,0.08,3,0.08,4.24c0,17.25-5.43,31.05-16.3,41.41c-10.86,10.36-25.21,15.54-43.03,15.54
		c-21.33,0-37.23-6.31-47.7-18.94c-10.47-12.63-15.7-27.56-15.7-44.81c0-18.07,5.35-33.08,16.04-45.03
		c10.69-11.95,25.21-17.92,43.54-17.92c16.47,0,30.27,5.21,41.42,15.63V32.42h15.02v40.35h-15.02c-2.83-6.77-7.85-12.79-15.07-18.06
		c-7.21-5.27-15.46-7.9-24.74-7.9c-12.9,0-23.09,4.53-30.56,13.6c-7.47,9.07-11.2,19.99-11.2,32.76c0,14.66,4.26,26.28,12.77,34.88
		c8.52,8.6,18.77,12.89,30.77,12.89c9.39,0,17.77-2.72,25.12-8.17c7.36-5.44,11.66-12.58,12.9-21.41h-21.3V95.99z"/>
	<path d="M1017.25,139.88V47.78h-15.28V32.42h98.12v37h-14.6V47.78h-50.42v36.56h43.88V99.7h-43.88v40.18h50.42v-22.34h14.6v37.7
		h-98.12v-15.36H1017.25z"/>
	<path d="M1146.86,139.88V47.78h-24.36v31.35h-14.6V32.42h95.66v46.71h-14.6V47.78h-24.27v92.09h15.36v15.36h-48.29v-15.36H1146.86z
		"/>
	<path d="M1257.62,93.26c0-17.84,5.6-32.76,16.81-44.77c11.2-12.01,25.8-18.01,43.8-18.01c18.16,0,32.96,6,44.39,18.01
		c11.43,12.01,17.15,27.05,17.15,45.12c0,18.42-5.81,33.63-17.44,45.61c-11.63,11.98-26.41,17.97-44.35,17.97
		c-11.43,0-21.94-2.84-31.53-8.52c-9.59-5.68-16.79-13.6-21.6-23.75C1260.03,114.76,1257.62,104.21,1257.62,93.26z M1277.06,93.34
		c0,13.48,3.79,24.78,11.37,33.91c7.58,9.12,17.54,13.69,29.88,13.69c12.22,0,22.27-4.66,30.13-14c7.87-9.33,11.8-20.47,11.8-33.42
		c0-13.07-4-24.12-12.01-33.16c-8.01-9.04-18.07-13.55-30.17-13.55c-12.05,0-21.9,4.45-29.54,13.33
		C1280.88,69.03,1277.06,80.1,1277.06,93.34z"/>
	<path d="M1406.07,139.88V47.78h-16.89V32.42h40.3l51.79,95.47V47.78h-16.72V32.42h48.46v15.36h-17.4v108.69h-18.3l-56.65-104.83
		v88.23h16.89v15.36h-48.38v-15.36H1406.07z"/>
	<path d="M1533.39,139.88V47.78h-15.28V32.42h98.12v37h-14.6V47.78h-50.42v36.56h43.88V99.7h-43.88v40.18h50.42v-22.34h14.6v37.7
		h-98.12v-15.36H1533.39z"/>
</g>
<g>
	<path d="M6.06,706.82c0-12.67,3.92-23.28,11.77-31.81s18.07-12.8,30.67-12.8c12.72,0,23.08,4.27,31.09,12.8
		c8,8.53,12.01,19.22,12.01,32.06c0,13.09-4.07,23.89-12.22,32.4c-8.14,8.51-18.5,12.77-31.06,12.77c-8.01,0-15.37-2.02-22.08-6.05
		c-6.72-4.04-11.76-9.66-15.13-16.88C7.75,722.1,6.06,714.6,6.06,706.82z M19.68,706.89c0,9.58,2.65,17.61,7.97,24.09
		c5.31,6.48,12.29,9.72,20.93,9.72c8.56,0,15.59-3.31,21.1-9.94c5.51-6.63,8.26-14.54,8.26-23.75c0-9.29-2.8-17.14-8.41-23.56
		c-5.61-6.42-12.65-9.63-21.13-9.63c-8.44,0-15.34,3.16-20.69,9.47C22.35,689.61,19.68,697.47,19.68,706.89z"/>
	<path d="M110.27,739.95v-65.44H99.81V663.6h64.14v26.29h-10.22v-15.37h-30.97v25.85h26.69v10.92h-26.69v28.67h10.58v10.92H99.81
		v-10.92H110.27z"/>
	<path d="M209.25,739.95v-65.44h-10.7V663.6h68.72v26.29h-10.22v-15.37h-35.31v25.97h30.73v10.92h-30.73v28.55h35.31v-15.87h10.22
		v26.79h-68.72v-10.92H209.25z"/>
	<path d="M325.77,751.81l2.44,1.13c6.46,2.8,11.43,4.2,14.92,4.2c1.11,0,2.56-0.19,4.34-0.56l-4.4,10.79
		c-1.19,0.21-2.28,0.31-3.27,0.31c-3.92,0-9.33-1.76-16.23-5.29c-5.94-3.02-10.62-4.53-14.03-4.53c-3.53,0-6.36,1.03-8.5,3.1
		l-3.51-5.33c2.34-2.68,5.39-4.43,9.15-5.27c-6.66-2.22-12.3-5.78-16.91-10.7c-4.62-4.91-7.84-10.2-9.66-15.87
		c-1.82-5.67-2.73-11.3-2.73-16.91c0-12.34,3.86-22.87,11.59-31.59s18.01-13.08,30.85-13.08c12.84,0,23.22,4.25,31.15,12.74
		c7.93,8.49,11.89,19.2,11.89,32.12c0,6.86-1.25,13.39-3.75,19.61s-6.78,11.79-12.84,16.72
		C340.21,748.33,333.38,751.14,325.77,751.81z M290.99,706.89c0,9.58,2.65,17.61,7.97,24.09c5.31,6.48,12.29,9.72,20.93,9.72
		c8.56,0,15.59-3.31,21.1-9.94c5.51-6.63,8.26-14.54,8.26-23.75c0-9.29-2.8-17.14-8.41-23.56c-5.61-6.42-12.65-9.63-21.13-9.63
		c-8.44,0-15.34,3.16-20.69,9.47C293.67,689.61,290.99,697.47,290.99,706.89z"/>
	<path d="M389.61,674.51v43.67c0,6.78,0.33,11.46,0.98,14.05c0.65,2.59,2.29,4.8,4.9,6.62s5.98,2.73,10.11,2.73
		c4.91,0,8.68-0.78,11.29-2.35s4.35-3.68,5.2-6.34c0.85-2.66,1.28-7.35,1.28-14.08v-44.29h-9.57V663.6h32.34v10.92H435.8v45.61
		c0,6.15-0.25,10.61-0.74,13.39c-0.5,2.78-1.83,5.69-4.01,8.72c-2.18,3.03-5.25,5.46-9.21,7.28c-3.96,1.82-8.78,2.73-14.45,2.73
		c-6.26,0-11.47-0.85-15.63-2.54c-4.16-1.69-7.29-3.96-9.39-6.81c-2.1-2.84-3.5-5.88-4.19-9.1c-0.69-3.22-1.04-8.22-1.04-15v-44.29
		H366.9V663.6h32.52v10.92H389.61z"/>
	<path d="M502.36,720.19h-29.79l-6.33,19.76h10.05v10.92h-32.58v-10.92h10.01l22.58-66.5h-9.99v-9.85h42.27v9.85h-10.34l23.14,66.5
		h9.25v10.92h-32.4v-10.92h10.28L502.36,720.19z M499.24,709.96l-11-36.51h-1.13l-11.46,36.51H499.24z"/>
	<path d="M542.09,739.95v-65.44h-10.7V663.6h33.83v10.92h-10.17v65.44h25.32v-29.68h11.65v40.59h-60.64v-10.92H542.09z"/>
	<path d="M629.6,706.82c0-12.67,3.92-23.28,11.77-31.81s18.07-12.8,30.67-12.8c12.72,0,23.08,4.27,31.09,12.8
		c8,8.53,12.01,19.22,12.01,32.06c0,13.09-4.07,23.89-12.22,32.4c-8.14,8.51-18.5,12.77-31.06,12.77c-8.01,0-15.37-2.02-22.08-6.05
		c-6.72-4.04-11.76-9.66-15.13-16.88C631.28,722.1,629.6,714.6,629.6,706.82z M643.21,706.89c0,9.58,2.65,17.61,7.97,24.09
		c5.31,6.48,12.29,9.72,20.93,9.72c8.56,0,15.59-3.31,21.1-9.94c5.51-6.63,8.26-14.54,8.26-23.75c0-9.29-2.8-17.14-8.41-23.56
		c-5.61-6.42-12.65-9.63-21.13-9.63c-8.44,0-15.34,3.16-20.69,9.47C645.89,689.61,643.21,697.47,643.21,706.89z"/>
	<path d="M734.05,739.95v-65.44h-11.35V663.6h33.59c7.01,0,12.58,0.58,16.7,1.73c4.12,1.15,7.53,3.58,10.23,7.28
		c2.69,3.7,4.04,8.31,4.04,13.83c0,11.54-5.68,18.8-17.04,21.77l14.61,31.75h10.11v10.92h-17.91l-18.83-40.78h-11.65v29.86h10.58
		v10.92h-34.42v-10.92H734.05z M746.53,699.17h9.75c4.72,0,8.19-0.32,10.43-0.97c2.24-0.65,4.07-1.97,5.5-3.95s2.14-4.65,2.14-8
		c0-2.84-0.72-5.25-2.17-7.21c-1.45-1.96-3.23-3.21-5.35-3.73c-2.12-0.52-5.36-0.78-9.72-0.78h-10.58V699.17z"/>
	<path d="M837.54,739.95v-65.44h-10.7V663.6h33.83v10.92H850.5v65.44h25.32v-29.68h11.65v40.59h-60.64v-10.92H837.54z"/>
	<path d="M902.58,739.95v-65.44h-10.7V663.6h68.72v26.29h-10.22v-15.37h-35.31v25.97h30.73v10.92h-30.73v28.55h35.31v-15.87h10.22
		v26.79h-68.72v-10.92H902.58z"/>
	<path d="M968.86,750.87v-31.68h10.34v7.72c4.95,9.5,11.43,14.24,19.44,14.24c4.08,0,7.53-1.32,10.34-3.95
		c2.81-2.64,4.22-6.09,4.22-10.35c0-4.14-1.15-7.12-3.45-8.94c-2.3-1.82-6.64-3.63-13.02-5.43c-7.41-2.09-12.9-4.07-16.47-5.93
		c-3.57-1.86-6.41-4.52-8.53-7.97c-2.12-3.45-3.18-7.54-3.18-12.26c0-7.32,2.31-13.17,6.92-17.54c4.62-4.37,10.41-6.56,17.39-6.56
		c6.62,0,12.76,2.26,18.43,6.78v-5.83h10.11v26.48h-10.11v-6.09c-4.24-6.73-10.09-10.1-17.54-10.1c-4.52,0-7.99,1.1-10.4,3.29
		c-2.42,2.2-3.63,4.82-3.63,7.87c0,2.34,0.61,4.4,1.84,6.18c1.23,1.78,2.79,3.08,4.7,3.92c1.9,0.84,5.65,2.01,11.24,3.51
		c7.29,2,12.58,3.87,15.87,5.61c3.29,1.74,6.12,4.63,8.5,8.69c2.38,4.06,3.57,8.72,3.57,13.99c0,7.45-2.49,13.6-7.46,18.45
		c-4.97,4.85-11.13,7.28-18.46,7.28c-7.53,0-14.31-2.86-20.33-8.59v7.21H968.86z"/>
	<path d="M1033.48,750.87v-31.68h10.34v7.72c4.95,9.5,11.43,14.24,19.44,14.24c4.08,0,7.53-1.32,10.34-3.95
		c2.81-2.64,4.22-6.09,4.22-10.35c0-4.14-1.15-7.12-3.45-8.94c-2.3-1.82-6.64-3.63-13.02-5.43c-7.41-2.09-12.9-4.07-16.47-5.93
		c-3.57-1.86-6.41-4.52-8.53-7.97c-2.12-3.45-3.18-7.54-3.18-12.26c0-7.32,2.31-13.17,6.92-17.54c4.62-4.37,10.41-6.56,17.39-6.56
		c6.62,0,12.76,2.26,18.43,6.78v-5.83h10.11v26.48h-10.11v-6.09c-4.24-6.73-10.09-10.1-17.54-10.1c-4.52,0-7.99,1.1-10.4,3.29
		c-2.42,2.2-3.63,4.82-3.63,7.87c0,2.34,0.61,4.4,1.84,6.18c1.23,1.78,2.79,3.08,4.7,3.92c1.9,0.84,5.65,2.01,11.24,3.51
		c7.29,2,12.58,3.87,15.87,5.61c3.29,1.74,6.12,4.63,8.5,8.69c2.38,4.06,3.57,8.72,3.57,13.99c0,7.45-2.49,13.6-7.46,18.45
		c-4.97,4.85-11.13,7.28-18.46,7.28c-7.53,0-14.31-2.86-20.33-8.59v7.21H1033.48z"/>
	<path d="M1107.91,739.95v-65.44h-10.7V663.6h68.72v26.29h-10.22v-15.37h-35.31v25.97h30.73v10.92h-30.73v28.55h35.31v-15.87h10.22
		v26.79h-68.72v-10.92H1107.91z"/>
	<path d="M1182.87,739.95v-65.44h-11.35V663.6h33.59c7.01,0,12.58,0.58,16.71,1.73c4.12,1.15,7.53,3.58,10.22,7.28
		c2.69,3.7,4.04,8.31,4.04,13.83c0,11.54-5.68,18.8-17.04,21.77l14.61,31.75h10.11v10.92h-17.91L1207,710.08h-11.65v29.86h10.58
		v10.92h-34.42v-10.92H1182.87z M1195.35,699.17h9.75c4.72,0,8.19-0.32,10.43-0.97s4.07-1.97,5.5-3.95s2.14-4.65,2.14-8
		c0-2.84-0.72-5.25-2.17-7.21c-1.45-1.96-3.23-3.21-5.35-3.73c-2.12-0.52-5.36-0.78-9.72-0.78h-10.58V699.17z"/>
	<path d="M1301.97,751.74l-27.78-77.23h-10.23V663.6h32.64v10.92h-9.55l21.06,58.6l20.5-58.6h-9.65V663.6h31.75v10.92h-10.04
		l-27.21,77.23H1301.97z"/>
	<path d="M1400.77,720.19h-29.79l-6.33,19.76h10.05v10.92h-32.58v-10.92h10.01l22.58-66.5h-9.99v-9.85h42.27v9.85h-10.34l23.14,66.5
		h9.25v10.92h-32.4v-10.92h10.28L1400.77,720.19z M1397.66,709.96l-11-36.51h-1.13l-11.46,36.51H1397.66z"/>
	<path d="M1440.51,739.95v-65.44h-10.7V663.6h33.83v10.92h-10.17v65.44h25.32v-29.68h11.65v40.59h-60.64v-10.92H1440.51z"/>
	<path d="M1515.83,674.51v43.67c0,6.78,0.33,11.46,0.98,14.05c0.65,2.59,2.29,4.8,4.9,6.62c2.62,1.82,5.98,2.73,10.11,2.73
		c4.91,0,8.68-0.78,11.29-2.35s4.35-3.68,5.2-6.34c0.85-2.66,1.28-7.35,1.28-14.08v-44.29h-9.57V663.6h32.34v10.92h-10.34v45.61
		c0,6.15-0.25,10.61-0.74,13.39c-0.5,2.78-1.83,5.69-4.01,8.72c-2.18,3.03-5.25,5.46-9.21,7.28c-3.96,1.82-8.78,2.73-14.45,2.73
		c-6.26,0-11.47-0.85-15.63-2.54c-4.16-1.69-7.29-3.96-9.39-6.81c-2.1-2.84-3.5-5.88-4.19-9.1s-1.04-8.22-1.04-15v-44.29h-10.22
		V663.6h32.52v10.92H1515.83z"/>
	<path d="M1587.94,739.95v-65.44h-10.7V663.6h68.72v26.29h-10.22v-15.37h-35.31v25.97h30.73v10.92h-30.73v28.55h35.31v-15.87h10.22
		v26.79h-68.72v-10.92H1587.94z"/>
</g>
<g>
</g>
<g>
</g>
<g>
</g>
<g>
</g>
<g>
</g>
<g>
</g>
<g>
</g>
<g>
</g>
<g>
</g>
<g>
</g>
<g>
</g>
<g>
</g>
<g>
</g>
<g>
</g>
<g>
</g>
</svg>
