<?xml version="1.0" encoding="utf-8"?>
<!-- Generator: Adobe Illustrator 29.2.1, SVG Export Plug-In . SVG Version: 9.03 Build 55982)  -->
<svg version="1.1" id="Layer_1" xmlns="http://www.w3.org/2000/svg" xmlns:xlink="http://www.w3.org/1999/xlink" x="0px" y="0px"
	 viewBox="0 0 1650 769" style="enable-background:new 0 0 1650 769;" xml:space="preserve">
<g>
	<path d="M22.77,639.83V560.3h58.72V248.62H22.77V169.1h367.36v145.18h-78.49v-65.65H188.31v108.97h88.82v79.53h-88.82V560.3h63.15
		v79.53H22.77z"/>
	<path d="M837.76,560.3v79.53H712.73l-92.68-206.09h-46.97V560.3h51.34v79.53H409.9V560.3h56.36V248.62H409.9V169.1h247.57
		c46.62,0,80.21,13.48,100.77,40.44c20.55,26.96,30.83,57.48,30.83,91.54c0,53.47-23.71,92.5-71.11,117.09l66.69,142.13H837.76z
		 M573.08,358.61h36.59c45.24,0,67.87-18.5,67.87-55.5c0-18.27-5.16-31.92-15.49-40.95c-10.33-9.02-24.54-13.54-42.64-13.54h-46.33
		V358.61z"/>
	<path d="M856.64,639.83V560.3h49.28V248.62h-49.28V169.1h361.76v149.24h-78.49v-69.71h-127.18v108.63h102.69v79.53h-102.69V560.3
		h127.18v-70.39h78.49v149.92H856.64z"/>
	<path d="M1259.71,639.83V560.3h49.28V248.62h-49.28V169.1h361.76v149.24h-78.49v-69.71h-127.18v108.63h102.69v79.53h-102.69V560.3
		h127.18v-70.39h78.49v149.92H1259.71z"/>
</g>
<g>
	<path d="M38.26,141.88V49.78H23.87V34.42h38.95c10.71,0,18.75,0.68,24.1,2.03c5.36,1.35,10.08,4.78,14.18,10.29
		c4.09,5.5,6.14,11.96,6.14,19.38c0,5.71-1.22,10.86-3.66,15.45s-6.02,8.07-10.73,10.42c6.51,2.36,11.51,6.26,15.02,11.7
		c3.5,5.45,5.26,11.67,5.26,18.67c0,6.06-1.3,11.57-3.91,16.51c-2.61,4.94-6.07,8.77-10.39,11.48c-4.32,2.71-9.04,4.53-14.18,5.47
		c-5.13,0.94-12.13,1.41-20.99,1.41h-39.8v-15.36H38.26z M55.93,85.54h11.02c8.41,0,14.29-1.55,17.63-4.64
		c3.34-3.09,5.01-7.64,5.01-13.64c0-11.66-7.54-17.48-22.63-17.48H55.93V85.54z M55.93,141.88h6.65c8.69,0,15.06-0.46,19.1-1.37
		c4.04-0.91,7.33-3.06,9.89-6.45c2.55-3.38,3.83-7.73,3.83-13.02c0-4.83-1.22-8.87-3.66-12.14s-5.58-5.44-9.42-6.53
		c-3.84-1.09-9.27-1.63-16.28-1.63h-10.1V141.88z"/>
	<path d="M151.42,49.78v61.46c0,9.54,0.46,16.13,1.39,19.78c0.93,3.65,3.24,6.75,6.94,9.31c3.7,2.56,8.47,3.84,14.3,3.84
		c6.95,0,12.28-1.1,15.99-3.31c3.7-2.21,6.15-5.18,7.36-8.92c1.21-3.74,1.81-10.34,1.81-19.82V49.78h-13.55V34.42h45.77v15.36
		h-14.64v64.19c0,8.65-0.35,14.94-1.05,18.85c-0.7,3.92-2.59,8.01-5.68,12.27c-3.08,4.27-7.43,7.68-13.04,10.24
		c-5.61,2.56-12.42,3.84-20.44,3.84c-8.86,0-16.24-1.19-22.13-3.58c-5.89-2.38-10.32-5.58-13.29-9.58c-2.97-4-4.95-8.27-5.93-12.8
		c-0.98-4.53-1.47-11.57-1.47-21.1V49.78h-14.47V34.42h46.02v15.36H151.42z"/>
	<path d="M280.99,141.88v-40.53l-34.83-51.57h-14.3V34.42h48.12v15.36h-14.74l25.85,37.97l23.61-37.97H300V34.42h46.61v15.36h-15.48
		l-32.48,51.57v40.53h15.99v15.36h-49.39v-15.36H280.99z"/>
	<path d="M421.74,141.88V49.78H397.6v31.35h-14.47V34.42h94.82v46.71h-14.47V49.78h-24.06v92.09h15.23v15.36h-47.87v-15.36H421.74z"
		/>
	<path d="M523.75,158.48L493.93,49.78h-14.05V34.42h44.76v15.36h-14.03l22.15,80.35l21.29-80.35h-13.92V34.42h53.76v15.36h-13.76
		l21.37,80.35l21.73-80.35h-13.95V34.42h43.08v15.36h-13.8l-29.23,108.69h-16.75l-26.33-97.13l-26.17,97.13H523.75z"/>
	<path d="M652.19,95.26c0-17.84,5.55-32.76,16.66-44.77c11.11-12.01,25.58-18.01,43.41-18.01c18,0,32.67,6,44,18.01
		c11.33,12.01,17,27.05,17,45.12c0,18.42-5.76,33.63-17.29,45.61c-11.53,11.98-26.18,17.97-43.96,17.97
		c-11.33,0-21.75-2.84-31.26-8.52c-9.51-5.68-16.65-13.6-21.41-23.75C654.57,116.76,652.19,106.21,652.19,95.26z M671.46,95.34
		c0,13.48,3.76,24.78,11.27,33.91c7.52,9.12,17.39,13.69,29.62,13.69c12.12,0,22.07-4.66,29.87-14c7.8-9.33,11.69-20.47,11.69-33.42
		c0-13.07-3.97-24.12-11.91-33.16c-7.94-9.04-17.91-13.55-29.91-13.55c-11.95,0-21.71,4.45-29.28,13.33
		C675.24,71.03,671.46,82.1,671.46,95.34z"/>
	<path d="M782.77,157.24v-21.72h20.7v18.9c0,6.42-0.48,11.39-1.43,14.92c-0.95,3.53-2.99,6.43-6.1,8.7
		c-3.11,2.27-7.5,3.49-13.17,3.66v-9.18c6.73-1.06,10.1-5.45,10.1-13.16c0-0.47-0.03-1.18-0.08-2.12H782.77z"/>
	<path d="M934.88,97.99h42.57c0.06,1.59,0.08,3,0.08,4.24c0,17.25-5.38,31.05-16.15,41.41c-10.77,10.36-24.99,15.54-42.66,15.54
		c-21.15,0-36.91-6.31-47.28-18.94c-10.38-12.63-15.57-27.56-15.57-44.81c0-18.07,5.3-33.08,15.9-45.03
		c10.6-11.95,24.99-17.92,43.16-17.92c16.32,0,30.01,5.21,41.06,15.63V34.42h14.89v40.35H956c-2.81-6.77-7.78-12.79-14.93-18.06
		c-7.15-5.27-15.33-7.9-24.53-7.9c-12.79,0-22.88,4.53-30.29,13.6c-7.4,9.07-11.11,19.99-11.11,32.76
		c0,14.66,4.22,26.28,12.66,34.88c8.44,8.6,18.61,12.89,30.5,12.89c9.31,0,17.61-2.72,24.9-8.17c7.29-5.44,11.55-12.58,12.79-21.41
		h-21.12V97.99z"/>
	<path d="M1005.56,141.88V49.78h-15.14V34.42h97.26v37h-14.47V49.78h-49.98v36.56h43.5v15.36h-43.5v40.18h49.98v-22.34h14.47v37.7
		h-97.26v-15.36H1005.56z"/>
	<path d="M1134.03,141.88V49.78h-24.15v31.35h-14.47V34.42h94.82v46.71h-14.47V49.78h-24.06v92.09h15.23v15.36h-47.87v-15.36
		H1134.03z"/>
	<path d="M1268.99,141.88V49.78h-24.15v31.35h-14.47V34.42h94.82v46.71h-14.47V49.78h-24.06v92.09h15.23v15.36h-47.87v-15.36
		H1268.99z"/>
	<path d="M1370.99,158.48l-29.82-108.69h-14.05V34.42h44.76v15.36h-14.03l22.15,80.35l21.29-80.35h-13.92V34.42h53.76v15.36h-13.76
		l21.37,80.35l21.73-80.35h-13.95V34.42h43.08v15.36h-13.8l-29.23,108.69h-16.75l-26.33-97.13l-26.17,97.13H1370.99z"/>
	<path d="M1499.43,95.26c0-17.84,5.55-32.76,16.66-44.77c11.11-12.01,25.58-18.01,43.41-18.01c18,0,32.67,6,44,18.01
		c11.33,12.01,17,27.05,17,45.12c0,18.42-5.76,33.63-17.29,45.61c-11.53,11.98-26.18,17.97-43.96,17.97
		c-11.33,0-21.75-2.84-31.26-8.52c-9.51-5.68-16.65-13.6-21.41-23.75C1501.81,116.76,1499.43,106.21,1499.43,95.26z M1518.7,95.34
		c0,13.48,3.76,24.78,11.27,33.91c7.52,9.12,17.39,13.69,29.62,13.69c12.12,0,22.07-4.66,29.87-14c7.8-9.33,11.69-20.47,11.69-33.42
		c0-13.07-3.97-24.12-11.9-33.16c-7.94-9.04-17.91-13.55-29.91-13.55c-11.95,0-21.71,4.45-29.28,13.33
		C1522.48,71.03,1518.7,82.1,1518.7,95.34z"/>
</g>
<g>
	<path d="M6.06,706.82c0-12.67,3.92-23.28,11.77-31.81s18.07-12.8,30.67-12.8c12.72,0,23.08,4.27,31.09,12.8
		c8,8.53,12.01,19.22,12.01,32.06c0,13.09-4.07,23.89-12.22,32.4c-8.14,8.51-18.5,12.77-31.06,12.77c-8.01,0-15.37-2.02-22.08-6.05
		c-6.72-4.04-11.76-9.66-15.13-16.88C7.75,722.1,6.06,714.6,6.06,706.82z M19.68,706.89c0,9.58,2.65,17.61,7.97,24.09
		c5.31,6.48,12.29,9.72,20.93,9.72c8.56,0,15.59-3.31,21.1-9.94c5.51-6.63,8.26-14.54,8.26-23.75c0-9.29-2.8-17.14-8.41-23.56
		c-5.61-6.42-12.65-9.63-21.13-9.63c-8.44,0-15.34,3.16-20.69,9.47C22.35,689.61,19.68,697.47,19.68,706.89z"/>
	<path d="M110.27,739.95v-65.44H99.81V663.6h64.14v26.29h-10.22v-15.37h-30.97v25.85h26.69v10.92h-26.69v28.67h10.58v10.92H99.81
		v-10.92H110.27z"/>
	<path d="M209.25,739.95v-65.44h-10.7V663.6h68.72v26.29h-10.22v-15.37h-35.31v25.97h30.73v10.92h-30.73v28.55h35.31v-15.87h10.22
		v26.79h-68.72v-10.92H209.25z"/>
	<path d="M325.77,751.81l2.44,1.13c6.46,2.8,11.43,4.2,14.92,4.2c1.11,0,2.56-0.19,4.34-0.56l-4.4,10.79
		c-1.19,0.21-2.28,0.31-3.27,0.31c-3.92,0-9.33-1.76-16.23-5.29c-5.94-3.02-10.62-4.53-14.03-4.53c-3.53,0-6.36,1.03-8.5,3.1
		l-3.51-5.33c2.34-2.68,5.39-4.43,9.15-5.27c-6.66-2.22-12.3-5.78-16.91-10.7c-4.62-4.91-7.84-10.2-9.66-15.87
		c-1.82-5.67-2.73-11.3-2.73-16.91c0-12.34,3.86-22.87,11.59-31.59s18.01-13.08,30.85-13.08c12.84,0,23.22,4.25,31.15,12.74
		c7.93,8.49,11.89,19.2,11.89,32.12c0,6.86-1.25,13.39-3.75,19.61s-6.78,11.79-12.84,16.72
		C340.21,748.33,333.38,751.14,325.77,751.81z M290.99,706.89c0,9.58,2.65,17.61,7.97,24.09c5.31,6.48,12.29,9.72,20.93,9.72
		c8.56,0,15.59-3.31,21.1-9.94c5.51-6.63,8.26-14.54,8.26-23.75c0-9.29-2.8-17.14-8.41-23.56c-5.61-6.42-12.65-9.63-21.13-9.63
		c-8.44,0-15.34,3.16-20.69,9.47C293.67,689.61,290.99,697.47,290.99,706.89z"/>
	<path d="M389.61,674.51v43.67c0,6.78,0.33,11.46,0.98,14.05c0.65,2.59,2.29,4.8,4.9,6.62s5.98,2.73,10.11,2.73
		c4.91,0,8.68-0.78,11.29-2.35s4.35-3.68,5.2-6.34c0.85-2.66,1.28-7.35,1.28-14.08v-44.29h-9.57V663.6h32.34v10.92H435.8v45.61
		c0,6.15-0.25,10.61-0.74,13.39c-0.5,2.78-1.83,5.69-4.01,8.72c-2.18,3.03-5.25,5.46-9.21,7.28c-3.96,1.82-8.78,2.73-14.45,2.73
		c-6.26,0-11.47-0.85-15.63-2.54c-4.16-1.69-7.29-3.96-9.39-6.81c-2.1-2.84-3.5-5.88-4.19-9.1c-0.69-3.22-1.04-8.22-1.04-15v-44.29
		H366.9V663.6h32.52v10.92H389.61z"/>
	<path d="M502.36,720.19h-29.79l-6.33,19.76h10.05v10.92h-32.58v-10.92h10.01l22.58-66.5h-9.99v-9.85h42.27v9.85h-10.34l23.14,66.5
		h9.25v10.92h-32.4v-10.92h10.28L502.36,720.19z M499.24,709.96l-11-36.51h-1.13l-11.46,36.51H499.24z"/>
	<path d="M542.09,739.95v-65.44h-10.7V663.6h33.83v10.92h-10.17v65.44h25.32v-29.68h11.65v40.59h-60.64v-10.92H542.09z"/>
	<path d="M629.6,706.82c0-12.67,3.92-23.28,11.77-31.81s18.07-12.8,30.67-12.8c12.72,0,23.08,4.27,31.09,12.8
		c8,8.53,12.01,19.22,12.01,32.06c0,13.09-4.07,23.89-12.22,32.4c-8.14,8.51-18.5,12.77-31.06,12.77c-8.01,0-15.37-2.02-22.08-6.05
		c-6.72-4.04-11.76-9.66-15.13-16.88C631.28,722.1,629.6,714.6,629.6,706.82z M643.21,706.89c0,9.58,2.65,17.61,7.97,24.09
		c5.31,6.48,12.29,9.72,20.93,9.72c8.56,0,15.59-3.31,21.1-9.94c5.51-6.63,8.26-14.54,8.26-23.75c0-9.29-2.8-17.14-8.41-23.56
		c-5.61-6.42-12.65-9.63-21.13-9.63c-8.44,0-15.34,3.16-20.69,9.47C645.89,689.61,643.21,697.47,643.21,706.89z"/>
	<path d="M734.05,739.95v-65.44h-11.35V663.6h33.59c7.01,0,12.58,0.58,16.7,1.73c4.12,1.15,7.53,3.58,10.23,7.28
		c2.69,3.7,4.04,8.31,4.04,13.83c0,11.54-5.68,18.8-17.04,21.77l14.61,31.75h10.11v10.92h-17.91l-18.83-40.78h-11.65v29.86h10.58
		v10.92h-34.42v-10.92H734.05z M746.53,699.17h9.75c4.72,0,8.19-0.32,10.43-0.97c2.24-0.65,4.07-1.97,5.5-3.95s2.14-4.65,2.14-8
		c0-2.84-0.72-5.25-2.17-7.21c-1.45-1.96-3.23-3.21-5.35-3.73c-2.12-0.52-5.36-0.78-9.72-0.78h-10.58V699.17z"/>
	<path d="M837.54,739.95v-65.44h-10.7V663.6h33.83v10.92H850.5v65.44h25.32v-29.68h11.65v40.59h-60.64v-10.92H837.54z"/>
	<path d="M902.58,739.95v-65.44h-10.7V663.6h68.72v26.29h-10.22v-15.37h-35.31v25.97h30.73v10.92h-30.73v28.55h35.31v-15.87h10.22
		v26.79h-68.72v-10.92H902.58z"/>
	<path d="M968.86,750.87v-31.68h10.34v7.72c4.95,9.5,11.43,14.24,19.44,14.24c4.08,0,7.53-1.32,10.34-3.95
		c2.81-2.64,4.22-6.09,4.22-10.35c0-4.14-1.15-7.12-3.45-8.94c-2.3-1.82-6.64-3.63-13.02-5.43c-7.41-2.09-12.9-4.07-16.47-5.93
		c-3.57-1.86-6.41-4.52-8.53-7.97c-2.12-3.45-3.18-7.54-3.18-12.26c0-7.32,2.31-13.17,6.92-17.54c4.62-4.37,10.41-6.56,17.39-6.56
		c6.62,0,12.76,2.26,18.43,6.78v-5.83h10.11v26.48h-10.11v-6.09c-4.24-6.73-10.09-10.1-17.54-10.1c-4.52,0-7.99,1.1-10.4,3.29
		c-2.42,2.2-3.63,4.82-3.63,7.87c0,2.34,0.61,4.4,1.84,6.18c1.23,1.78,2.79,3.08,4.7,3.92c1.9,0.84,5.65,2.01,11.24,3.51
		c7.29,2,12.58,3.87,15.87,5.61c3.29,1.74,6.12,4.63,8.5,8.69c2.38,4.06,3.57,8.72,3.57,13.99c0,7.45-2.49,13.6-7.46,18.45
		c-4.97,4.85-11.13,7.28-18.46,7.28c-7.53,0-14.31-2.86-20.33-8.59v7.21H968.86z"/>
	<path d="M1033.48,750.87v-31.68h10.34v7.72c4.95,9.5,11.43,14.24,19.44,14.24c4.08,0,7.53-1.32,10.34-3.95
		c2.81-2.64,4.22-6.09,4.22-10.35c0-4.14-1.15-7.12-3.45-8.94c-2.3-1.82-6.64-3.63-13.02-5.43c-7.41-2.09-12.9-4.07-16.47-5.93
		c-3.57-1.86-6.41-4.52-8.53-7.97c-2.12-3.45-3.18-7.54-3.18-12.26c0-7.32,2.31-13.17,6.92-17.54c4.62-4.37,10.41-6.56,17.39-6.56
		c6.62,0,12.76,2.26,18.43,6.78v-5.83h10.11v26.48h-10.11v-6.09c-4.24-6.73-10.09-10.1-17.54-10.1c-4.52,0-7.99,1.1-10.4,3.29
		c-2.42,2.2-3.63,4.82-3.63,7.87c0,2.34,0.61,4.4,1.84,6.18c1.23,1.78,2.79,3.08,4.7,3.92c1.9,0.84,5.65,2.01,11.24,3.51
		c7.29,2,12.58,3.87,15.87,5.61c3.29,1.74,6.12,4.63,8.5,8.69c2.38,4.06,3.57,8.72,3.57,13.99c0,7.45-2.49,13.6-7.46,18.45
		c-4.97,4.85-11.13,7.28-18.46,7.28c-7.53,0-14.31-2.86-20.33-8.59v7.21H1033.48z"/>
	<path d="M1107.91,739.95v-65.44h-10.7V663.6h68.72v26.29h-10.22v-15.37h-35.31v25.97h30.73v10.92h-30.73v28.55h35.31v-15.87h10.22
		v26.79h-68.72v-10.92H1107.91z"/>
	<path d="M1182.87,739.95v-65.44h-11.35V663.6h33.59c7.01,0,12.58,0.58,16.71,1.73c4.12,1.15,7.53,3.58,10.22,7.28
		c2.69,3.7,4.04,8.31,4.04,13.83c0,11.54-5.68,18.8-17.04,21.77l14.61,31.75h10.11v10.92h-17.91L1207,710.08h-11.65v29.86h10.58
		v10.92h-34.42v-10.92H1182.87z M1195.35,699.17h9.75c4.72,0,8.19-0.32,10.43-0.97s4.07-1.97,5.5-3.95s2.14-4.65,2.14-8
		c0-2.84-0.72-5.25-2.17-7.21c-1.45-1.96-3.23-3.21-5.35-3.73c-2.12-0.52-5.36-0.78-9.72-0.78h-10.58V699.17z"/>
	<path d="M1301.97,751.74l-27.78-77.23h-10.23V663.6h32.64v10.92h-9.55l21.06,58.6l20.5-58.6h-9.65V663.6h31.75v10.92h-10.04
		l-27.21,77.23H1301.97z"/>
	<path d="M1400.77,720.19h-29.79l-6.33,19.76h10.05v10.92h-32.58v-10.92h10.01l22.58-66.5h-9.99v-9.85h42.27v9.85h-10.34l23.14,66.5
		h9.25v10.92h-32.4v-10.92h10.28L1400.77,720.19z M1397.66,709.96l-11-36.51h-1.13l-11.46,36.51H1397.66z"/>
	<path d="M1440.51,739.95v-65.44h-10.7V663.6h33.83v10.92h-10.17v65.44h25.32v-29.68h11.65v40.59h-60.64v-10.92H1440.51z"/>
	<path d="M1515.83,674.51v43.67c0,6.78,0.33,11.46,0.98,14.05c0.65,2.59,2.29,4.8,4.9,6.62c2.62,1.82,5.98,2.73,10.11,2.73
		c4.91,0,8.68-0.78,11.29-2.35s4.35-3.68,5.2-6.34c0.85-2.66,1.28-7.35,1.28-14.08v-44.29h-9.57V663.6h32.34v10.92h-10.34v45.61
		c0,6.15-0.25,10.61-0.74,13.39c-0.5,2.78-1.83,5.69-4.01,8.72c-2.18,3.03-5.25,5.46-9.21,7.28c-3.96,1.82-8.78,2.73-14.45,2.73
		c-6.26,0-11.47-0.85-15.63-2.54c-4.16-1.69-7.29-3.96-9.39-6.81c-2.1-2.84-3.5-5.88-4.19-9.1s-1.04-8.22-1.04-15v-44.29h-10.22
		V663.6h32.52v10.92H1515.83z"/>
	<path d="M1587.94,739.95v-65.44h-10.7V663.6h68.72v26.29h-10.22v-15.37h-35.31v25.97h30.73v10.92h-30.73v28.55h35.31v-15.87h10.22
		v26.79h-68.72v-10.92H1587.94z"/>
</g>
<g>
</g>
<g>
</g>
<g>
</g>
<g>
</g>
<g>
</g>
<g>
</g>
<g>
</g>
<g>
</g>
<g>
</g>
<g>
</g>
<g>
</g>
<g>
</g>
<g>
</g>
<g>
</g>
<g>
</g>
</svg>
