<?xml version="1.0" encoding="utf-8"?>
<!-- Generator: Adobe Illustrator 30.2.1, SVG Export Plug-In . SVG Version: 9.03 Build 0)  -->
<svg version="1.1" id="Layer_1" xmlns="http://www.w3.org/2000/svg" xmlns:xlink="http://www.w3.org/1999/xlink" x="0px" y="0px"
	 viewBox="0 0 1143.97 577.68" style="enable-background:new 0 0 1143.97 577.68;" xml:space="preserve">
<g>
	<path d="M15.26,195.18v-26.22h242.65v100.58h-24.27c-1.96-31.7-5.09-74.36-45.79-74.36h-84.15v89.62h36.79
		c14.48,0,23.48-10.96,23.48-23.09V235.5h22.7v129.54h-23.09v-15.26c0-18.39-2.35-37.18-24.66-37.18h-35.22v87.28
		c0,10.96,5.48,14.09,15.26,14.09h31.31v26.22H15.26v-26.22h29.74c7.83,0,13.7-6.65,13.7-14.48V209.66c0-7.83-5.87-14.48-13.7-14.48
		H15.26z"/>
	<path d="M310.75,413.96c7.83,0,13.7-6.65,13.7-14.48V209.66c0-7.83-5.87-14.48-13.7-14.48H281v-26.22h171.03
		c45.01,0,80.23,22.31,80.23,70.45c0,42.27-26.22,61.05-66.14,66.92c30.92,5.09,40.31,15.26,43.83,46.18l5.87,49.31
		c0.78,8.22,3.13,12.52,12.13,12.52s13.31-5.09,13.31-14.09v-45.01h26.22v33.66c0,25.44-0.39,57.14-49.7,57.14
		c-26.22,0-46.96-12.52-50.1-39.92l-6.65-59.88c-1.57-16.44-13.7-30.14-30.92-30.14h-60.27v83.75c0,10.96,5.48,14.09,15.26,14.09
		h27.4v26.22H281v-26.22H310.75z M369.84,289.5h69.27c25.83,0,45.01-23.09,45.01-48.14c0-23.87-18-46.18-43.44-46.18h-70.84V289.5z"
		/>
	<path d="M673.15,195.18v90.02h44.22c14.87,0,23.88-10.96,23.88-23.09V235.5h22.7v129.54h-23.09v-15.26
		c0-18.39-2.74-37.18-25.05-37.18h-42.66v100.58h95.5c40.7,0,44.22-42.66,45.79-84.14h24.66v111.15H584.7v-26.22h29.74
		c7.83,0,13.7-6.65,13.7-14.48V209.66c0-10.57-5.87-14.48-13.7-14.48H584.7v-26.22h250.48v100.58h-24.66
		c-1.57-31.7-5.09-74.36-45.79-74.36H673.15z"/>
	<path d="M960.42,195.18v90.02h44.22c14.87,0,23.87-10.96,23.87-23.09V235.5h22.7v129.54h-23.09v-15.26
		c0-18.39-2.74-37.18-25.05-37.18h-42.66v100.58h95.49c40.7,0,44.22-42.66,45.79-84.14h24.66v111.15H871.97v-26.22h29.74
		c7.83,0,13.7-6.65,13.7-14.48V209.66c0-10.57-5.87-14.48-13.7-14.48h-29.74v-26.22h250.48v100.58h-24.66
		c-1.56-31.7-5.09-74.36-45.79-74.36H960.42z"/>
</g>
<g>
	<path d="M72.32,30.23h25.24c19.97,0,30.14,10.53,30.14,31.41c0,12.71-3.63,20.7-12.71,27.05c10.53,5.27,14.89,14.16,14.89,30.14
		c0,12.17-2.9,20.88-8.9,26.51c-4.9,4.54-9.99,5.99-21.79,5.99H72.32V30.23z M94.29,80.35c5.63,0,8.17-0.73,10.71-3.09
		c3.27-3.09,4.9-7.99,4.9-14.89c0-10.35-3.99-15.25-12.53-15.25h-6.9v33.23H94.29z M97.2,134.45c10.17,0,14.52-5.08,14.52-17.61
		c0-7.81-2-13.8-5.81-16.89c-2.36-2-5.27-2.72-10.89-2.72h-4.54v37.22H97.2z"/>
	<path d="M201.96,30.23v81.7c0,17.97-1.45,24.51-7.26,31.59c-4.9,5.99-12.71,9.62-21.06,9.62c-8.53,0-16.34-3.63-21.24-9.62
		c-5.81-7.08-7.26-13.8-7.26-31.59v-81.7h18.16v79.71c0,11.44,0.36,16.89,1.27,19.43c1.45,4.36,4.72,6.9,9.08,6.9
		c4.54,0,7.99-2.91,9.26-7.99c0.54-2.36,0.91-8.17,0.91-18.34V30.23H201.96z"/>
	<path d="M255.34,151.34h-18.16v-49.02l-22.7-72.08h18.88l12.89,47.57l12.53-47.57h18.34l-21.79,72.08V151.34z"/>
	<path d="M350.48,151.34h-18.16V47.12h-19.25V30.23h57.01v16.89h-19.61V151.34z"/>
	<path d="M438.35,151.34l-12.53-73.35l-11.98,73.35h-15.8l-18.16-121.1h18.16l9.08,72.44l11.44-72.44h15.07l11.98,72.44l9.26-72.44
		h17.61l-18.34,121.1H438.35z"/>
	<path d="M540.58,111.94c0,17.97-1.45,24.51-7.26,31.59c-4.9,5.99-12.71,9.62-21.06,9.62c-8.53,0-16.34-3.63-21.24-9.62
		c-5.81-7.08-7.26-13.8-7.26-31.59v-42.3c0-17.79,1.45-24.51,7.26-31.59c4.9-5.99,12.71-9.62,21.24-9.62
		c8.35,0,16.34,3.63,21.06,9.62c5.81,7.08,7.26,13.62,7.26,31.59V111.94z M501.9,109.94c0,11.44,0.36,16.89,1.27,19.43
		c1.45,4.36,4.72,6.9,9.08,6.9c4.54,0,7.99-2.91,9.26-7.99c0.54-2.36,0.91-8.17,0.91-18.34V71.63c0-11.8-0.36-16.89-1.27-19.43
		c-1.45-4.36-4.72-6.9-8.9-6.9c-4.72,0-8.17,2.91-9.44,7.99c-0.54,2.36-0.91,8.53-0.91,18.34V109.94z"/>
	<path d="M572.53,151.34l-9.44,21.06h-8.17l6.35-21.06h-6.35v-18.7h17.61V151.34z"/>
	<path d="M676.57,151.34h-8.9l-3.45-9.62c-5.08,8.35-10.17,11.44-19.06,11.44c-8.71,0-15.98-3.81-19.97-10.35
		c-3.99-6.9-5.45-15.07-5.45-30.14v-42.3c0-18.88,1.27-25.06,7.26-32.32c4.9-6.17,12.71-9.62,21.24-9.62
		c13.44,0,23.79,7.81,27.05,20.52c1.09,4.36,1.27,6.35,1.27,20.88h-18.34c0-7.26-0.18-11.98-0.36-14.71
		c-0.73-5.81-4.54-9.62-9.8-9.62c-4.54,0-7.99,2.91-9.26,7.99c-0.54,2.18-0.91,8.53-0.91,18.16v38.31c0,9.08,0.54,16.89,1.27,19.25
		c1.27,4.36,4.72,6.9,9.08,6.9c4.54,0,8.17-2.9,9.26-7.81c0.54-2.54,0.91-8.35,0.91-18.34v-4.9h-11.08V89.97h29.23V151.34z"/>
	<path d="M742.11,47.12h-31.23v33.04h22.51v16.89h-22.51v37.4h31.23v16.89h-49.39V30.23h49.39V47.12z"/>
	<path d="M790.4,151.34h-18.16V47.12H753V30.23h57.01v16.89H790.4V151.34z"/>
	<path d="M882.09,151.34h-18.16V47.12h-19.25V30.23h57.01v16.89h-19.61V151.34z"/>
	<path d="M969.97,151.34l-12.53-73.35l-11.98,73.35h-15.8L911.5,30.23h18.16l9.08,72.44l11.44-72.44h15.07l11.98,72.44l9.26-72.44
		h17.61l-18.34,121.1H969.97z"/>
	<path d="M1072.19,111.94c0,17.97-1.45,24.51-7.26,31.59c-4.9,5.99-12.71,9.62-21.06,9.62c-8.53,0-16.34-3.63-21.24-9.62
		c-5.81-7.08-7.26-13.8-7.26-31.59v-42.3c0-17.79,1.45-24.51,7.26-31.59c4.9-5.99,12.71-9.62,21.24-9.62
		c8.35,0,16.34,3.63,21.06,9.62c5.81,7.08,7.26,13.62,7.26,31.59V111.94z M1033.52,109.94c0,11.44,0.36,16.89,1.27,19.43
		c1.45,4.36,4.72,6.9,9.08,6.9c4.54,0,7.99-2.91,9.26-7.99c0.54-2.36,0.91-8.17,0.91-18.34V71.63c0-11.8-0.36-16.89-1.27-19.43
		c-1.45-4.36-4.72-6.9-8.9-6.9c-4.72,0-8.17,2.91-9.44,7.99c-0.54,2.36-0.91,8.53-0.91,18.34V109.94z"/>
</g>
<g>
	<path d="M92.04,517.07c0,12.85-1.04,17.52-5.19,22.58c-3.5,4.28-9.09,6.88-15.06,6.88c-6.1,0-11.68-2.6-15.19-6.88
		c-4.15-5.06-5.19-9.86-5.19-22.58v-30.24c0-12.72,1.04-17.52,5.19-22.58c3.5-4.28,9.08-6.88,15.19-6.88
		c5.97,0,11.68,2.6,15.06,6.88c4.15,5.06,5.19,9.73,5.19,22.58V517.07z M64.39,515.64c0,8.18,0.26,12.07,0.91,13.89
		c1.04,3.12,3.37,4.93,6.49,4.93c3.24,0,5.71-2.08,6.62-5.71c0.39-1.69,0.65-5.84,0.65-13.11v-27.39c0-8.44-0.26-12.07-0.91-13.89
		c-1.04-3.12-3.37-4.93-6.36-4.93c-3.37,0-5.84,2.08-6.75,5.71c-0.39,1.69-0.65,6.1-0.65,13.11V515.64z"/>
	<path d="M138.24,470.73H116.3v23.62h15.96v12.07H116.3v38.81h-12.98v-86.57h34.91V470.73z"/>
	<path d="M204.43,470.73H182.1v23.62h16.09v12.07H182.1v26.74h22.32v12.07h-35.3v-86.57h35.3V470.73z"/>
	<path d="M257.25,551.85c-7.53-0.13-11.55-2.08-14.41-7.14c-3.11,1.3-5.45,1.82-8.57,1.82c-6.1,0-11.68-2.47-15.19-6.88
		c-4.15-5.06-5.19-9.86-5.19-22.58v-30.24c0-12.72,1.04-17.52,5.19-22.58c3.5-4.28,9.08-6.88,15.19-6.88
		c5.97,0,11.68,2.6,15.06,6.88c4.15,5.06,5.19,9.73,5.19,22.58v30.24c0,10.64-0.65,15.06-2.85,19.21c1.43,1.69,2.73,2.34,5.58,2.73
		V551.85z M226.88,515.64c0,8.18,0.26,12.07,0.91,13.89c1.04,3.12,3.37,4.93,6.49,4.93c3.24,0,5.71-2.08,6.62-5.71
		c0.39-1.69,0.65-5.84,0.65-13.11v-27.39c0-8.44-0.26-12.07-0.91-13.89c-1.04-3.12-3.37-4.93-6.36-4.93c-3.37,0-5.84,2.08-6.75,5.71
		c-0.39,1.69-0.65,6.1-0.65,13.11V515.64z"/>
	<path d="M306.31,458.66v58.41c0,12.85-1.04,17.52-5.19,22.58c-3.5,4.28-9.09,6.88-15.06,6.88c-6.1,0-11.68-2.6-15.19-6.88
		c-4.15-5.06-5.19-9.86-5.19-22.58v-58.41h12.98v56.98c0,8.18,0.26,12.07,0.91,13.89c1.04,3.12,3.38,4.93,6.49,4.93
		c3.24,0,5.71-2.08,6.62-5.71c0.39-1.69,0.65-5.84,0.65-13.11v-56.98H306.31z"/>
	<path d="M330.71,526.15l-2.99,19.08h-12.85l14.15-86.57h16.87l15.06,86.57h-13.37l-2.99-19.08H330.71z M337.46,479.56l-4.93,34.53
		h10.12L337.46,479.56z"/>
	<path d="M404.3,545.23h-34.52v-86.57h12.98v74.5h21.55V545.23z"/>
	<path d="M475.04,517.07c0,12.85-1.04,17.52-5.19,22.58c-3.5,4.28-9.09,6.88-15.06,6.88c-6.1,0-11.68-2.6-15.19-6.88
		c-4.15-5.06-5.19-9.86-5.19-22.58v-30.24c0-12.72,1.04-17.52,5.19-22.58c3.5-4.28,9.09-6.88,15.19-6.88
		c5.97,0,11.68,2.6,15.06,6.88c4.15,5.06,5.19,9.73,5.19,22.58V517.07z M447.39,515.64c0,8.18,0.26,12.07,0.91,13.89
		c1.04,3.12,3.37,4.93,6.49,4.93c3.24,0,5.71-2.08,6.62-5.71c0.39-1.69,0.65-5.84,0.65-13.11v-27.39c0-8.44-0.26-12.07-0.91-13.89
		c-1.04-3.12-3.38-4.93-6.36-4.93c-3.37,0-5.84,2.08-6.75,5.71c-0.39,1.69-0.65,6.1-0.65,13.11V515.64z"/>
	<path d="M499.31,545.23h-12.98v-86.57h18.17c15.06,0,21.68,7.79,21.68,25.05c0,11.16-2.34,17.13-8.7,21.81l9.99,39.72h-13.76
		l-8.18-36.21h-6.23V545.23z M503.46,496.95c4.41,0,6.1-0.65,7.53-2.73c1.3-2.08,2.21-5.97,2.21-10.38c0-4.67-0.91-8.83-2.6-10.77
		c-1.3-1.82-2.98-2.34-7.14-2.34h-4.15v26.22H503.46z"/>
	<path d="M594.31,545.23h-34.52v-86.57h12.98v74.5h21.55V545.23z"/>
	<path d="M637.14,470.73h-22.32v23.62h16.09v12.07h-16.09v26.74h22.32v12.07h-35.3v-86.57h35.3V470.73z"/>
	<path d="M673.61,479.95c-0.78-7.79-2.73-10.51-7.53-10.51c-4.41,0-7.27,3.37-7.27,8.57c0,5.97,2.34,9.47,11.55,18.04
		c13.5,12.33,16.74,17.78,16.74,28.29c0,13.24-8.31,22.19-20.51,22.19c-12.72,0-21.16-9.21-21.54-23.36l12.33-2.21
		c0.39,9.08,3.37,13.5,9.21,13.5c4.8,0,7.92-3.63,7.92-9.47c0-3.25-1.17-6.36-3.38-9.35c-2.08-2.73-2.86-3.63-10.12-10.25
		c-10.9-10.12-14.8-17-14.8-26.61c0-12.85,8.18-21.42,20.38-21.42c11.42,0,18.04,7.01,19.6,20.77L673.61,479.95z"/>
	<path d="M724.09,479.95c-0.78-7.79-2.73-10.51-7.53-10.51c-4.41,0-7.27,3.37-7.27,8.57c0,5.97,2.34,9.47,11.55,18.04
		c13.5,12.33,16.74,17.78,16.74,28.29c0,13.24-8.31,22.19-20.51,22.19c-12.72,0-21.16-9.21-21.54-23.36l12.33-2.21
		c0.39,9.08,3.38,13.5,9.21,13.5c4.8,0,7.92-3.63,7.92-9.47c0-3.25-1.17-6.36-3.38-9.35c-2.08-2.73-2.86-3.63-10.12-10.25
		c-10.9-10.12-14.8-17-14.8-26.61c0-12.85,8.18-21.42,20.38-21.42c11.42,0,18.04,7.01,19.6,20.77L724.09,479.95z"/>
	<path d="M781.85,470.73h-22.32v23.62h16.09v12.07h-16.09v26.74h22.32v12.07h-35.3v-86.57h35.3V470.73z"/>
	<path d="M804.69,545.23h-12.98v-86.57h18.17c15.06,0,21.67,7.79,21.67,25.05c0,11.16-2.34,17.13-8.7,21.81l9.99,39.72H819.1
		l-8.18-36.21h-6.23V545.23z M808.84,496.95c4.41,0,6.1-0.65,7.53-2.73c1.3-2.08,2.21-5.97,2.21-10.38c0-4.67-0.91-8.83-2.6-10.77
		c-1.3-1.82-2.99-2.34-7.14-2.34h-4.15v26.22H808.84z"/>
	<path d="M878.15,545.23l-16.61-86.57h13.24l9.99,55.42l8.83-55.42h12.85l-14.8,86.57H878.15z"/>
	<path d="M924.35,526.15l-2.99,19.08h-12.85l14.15-86.57h16.87l15.06,86.57h-13.37l-2.99-19.08H924.35z M931.1,479.56l-4.93,34.53
		h10.12L931.1,479.56z"/>
	<path d="M997.95,545.23h-34.52v-86.57h12.98v74.5h21.55V545.23z"/>
	<path d="M1047,458.66v58.41c0,12.85-1.04,17.52-5.19,22.58c-3.5,4.28-9.08,6.88-15.06,6.88c-6.1,0-11.68-2.6-15.19-6.88
		c-4.15-5.06-5.19-9.86-5.19-22.58v-58.41h12.98v56.98c0,8.18,0.26,12.07,0.91,13.89c1.04,3.12,3.37,4.93,6.49,4.93
		c3.25,0,5.71-2.08,6.62-5.71c0.39-1.69,0.65-5.84,0.65-13.11v-56.98H1047z"/>
	<path d="M1093.99,470.73h-22.32v23.62h16.09v12.07h-16.09v26.74h22.32v12.07h-35.3v-86.57h35.3V470.73z"/>
</g>
<g>
</g>
<g>
</g>
<g>
</g>
<g>
</g>
<g>
</g>
<g>
</g>
<g>
</g>
<g>
</g>
<g>
</g>
<g>
</g>
<g>
</g>
<g>
</g>
<g>
</g>
<g>
</g>
<g>
</g>
</svg>
