<?xml version="1.0" encoding="utf-8"?>
<!-- Generator: Adobe Illustrator 29.5.1, SVG Export Plug-In . SVG Version: 9.03 Build 0)  -->
<svg version="1.1" id="Layer_1" xmlns="http://www.w3.org/2000/svg" xmlns:xlink="http://www.w3.org/1999/xlink" x="0px" y="0px"
	 viewBox="0 0 1650 873" style="enable-background:new 0 0 1650 873;" xml:space="preserve">
<g>
	<path d="M22.77,640.85v-79.94h58.72v-313.3H22.77v-79.94h367.37V313.6h-78.49v-65.99H188.31v109.53h88.82v79.94h-88.82v123.82
		h63.15v79.94H22.77z"/>
	<path d="M837.76,560.91v79.94H712.73l-92.68-207.16h-46.97v127.22h51.34v79.94H409.91v-79.94h56.36v-313.3h-56.36v-79.94h247.57
		c46.62,0,80.21,13.55,100.77,40.65c20.55,27.1,30.84,57.78,30.84,92.02c0,53.75-23.71,92.98-71.11,117.7l66.69,142.87H837.76z
		 M573.08,358.17h36.59c45.24,0,67.87-18.59,67.87-55.79c0-18.37-5.16-32.09-15.49-41.16c-10.33-9.07-24.54-13.61-42.64-13.61
		h-46.33V358.17z"/>
	<path d="M856.65,640.85v-79.94h49.28v-313.3h-49.28v-79.94h361.76v150.01h-78.49v-70.07h-127.18v109.19h102.69v79.94h-102.69
		v124.16h127.18v-70.75h78.49v150.69H856.65z"/>
	<path d="M1259.71,640.85v-79.94h49.28v-313.3h-49.28v-79.94h361.76v150.01h-78.49v-70.07h-127.18v109.19h102.69v79.94h-102.69
		v124.16h127.18v-70.75h78.49v150.69H1259.71z"/>
</g>
<g>
	<path d="M39.79,127.21V43.67H26.56V29.73h35.83c9.85,0,17.24,0.61,22.17,1.84c4.93,1.23,9.27,4.34,13.04,9.33
		c3.77,4.99,5.65,10.85,5.65,17.58c0,5.18-1.12,9.85-3.37,14.02c-2.24,4.17-5.53,7.32-9.87,9.45c5.98,2.14,10.59,5.67,13.81,10.61
		c3.22,4.94,4.84,10.59,4.84,16.94c0,5.5-1.2,10.49-3.6,14.98c-2.4,4.49-5.58,7.96-9.56,10.41c-3.97,2.46-8.32,4.11-13.04,4.97
		c-4.72,0.85-11.16,1.28-19.31,1.28h-36.6v-13.94H39.79z M56.04,76.1h10.14c7.74,0,13.14-1.4,16.21-4.21
		c3.07-2.8,4.6-6.93,4.6-12.38c0-10.57-6.94-15.86-20.82-15.86H56.04V76.1z M56.04,127.21h6.11c8,0,13.85-0.41,17.57-1.24
		c3.71-0.83,6.75-2.78,9.09-5.85c2.35-3.07,3.52-7.01,3.52-11.81c0-4.38-1.12-8.05-3.37-11.01c-2.24-2.96-5.13-4.94-8.67-5.93
		c-3.53-0.99-8.53-1.48-14.97-1.48h-9.29V127.21z"/>
	<path d="M143.88,43.67v55.75c0,8.65,0.43,14.63,1.28,17.94c0.85,3.31,2.98,6.13,6.38,8.45c3.4,2.32,7.79,3.48,13.16,3.48
		c6.4,0,11.3-1,14.7-3c3.4-2,5.66-4.7,6.77-8.09c1.11-3.39,1.66-9.38,1.66-17.98V43.67h-12.46V29.73h42.1v13.94h-13.47v58.23
		c0,7.85-0.32,13.55-0.97,17.1c-0.65,3.55-2.39,7.26-5.22,11.13c-2.84,3.87-6.84,6.97-12,9.29c-5.16,2.32-11.43,3.48-18.81,3.48
		c-8.15,0-14.94-1.08-20.35-3.24c-5.42-2.16-9.49-5.06-12.23-8.69c-2.74-3.63-4.55-7.5-5.46-11.61c-0.9-4.11-1.35-10.49-1.35-19.14
		V43.67h-13.31V29.73h42.33v13.94H143.88z"/>
	<path d="M263.06,127.21V90.44l-32.04-46.78h-13.16V29.73h44.27v13.94h-13.56l23.78,34.44l21.72-34.44h-13.51V29.73h42.87v13.94
		h-14.24l-29.87,46.78v36.77h14.7v13.94h-45.43v-13.94H263.06z"/>
	<path d="M392.53,127.21V43.67h-22.21V72.1h-13.31V29.73h87.22V72.1h-13.31V43.67h-22.13v83.54h14.01v13.94h-44.03v-13.94H392.53z"
		/>
	<path d="M462.49,127.21V43.67h-12.23V29.73h41.17v13.94h-12.69v31.88h46.82V43.67h-12.61V29.73h41.17v13.94h-12.31v83.54h12.31
		v13.94h-41.17v-13.94h12.61V89.48h-46.82v37.73h12.69v13.94h-41.17v-13.94H462.49z"/>
	<path d="M575.01,127.21V43.67h-14.78V29.73h43.72c9.13,0,16.38,0.73,21.75,2.2c5.36,1.47,9.8,4.57,13.31,9.29
		c3.51,4.73,5.26,10.61,5.26,17.66c0,14.74-7.4,24-22.19,27.79l19.02,40.54h13.16v13.94h-23.32l-24.51-52.06h-15.17v38.13h13.77
		v13.94h-44.81v-13.94H575.01z M591.26,75.14h12.69c6.14,0,10.67-0.41,13.58-1.24c2.91-0.83,5.3-2.51,7.16-5.05
		c1.86-2.54,2.79-5.94,2.79-10.21c0-3.63-0.94-6.7-2.82-9.21c-1.88-2.51-4.21-4.1-6.96-4.77c-2.76-0.67-6.98-1-12.65-1h-13.77V75.14
		z"/>
	<path d="M672.21,127.21V43.67h-13.93V29.73h89.46v33.56h-13.31V43.67h-45.97v33.16h40.01v13.94h-40.01v36.44h45.97v-20.27h13.31
		v34.2h-89.46v-13.94H672.21z"/>
	<path d="M771.27,127.21V43.67h-13.93V29.73h89.46v33.56h-13.31V43.67h-45.97v33.16h40.01v13.94h-40.01v36.44h45.97v-20.27h13.31
		v34.2h-89.46v-13.94H771.27z"/>
	<path d="M865.68,141.15v-19.7h19.04v17.14c0,5.82-0.44,10.33-1.32,13.54c-0.88,3.2-2.75,5.83-5.61,7.89
		c-2.86,2.06-6.9,3.16-12.11,3.32V155c6.19-0.96,9.29-4.94,9.29-11.93c0-0.43-0.03-1.07-0.08-1.92H865.68z"/>
	<path d="M1005.6,87.4h39.16c0.05,1.44,0.08,2.72,0.08,3.84c0,15.65-4.95,28.17-14.86,37.57c-9.91,9.4-22.98,14.1-39.24,14.1
		c-19.45,0-33.95-5.73-43.49-17.18c-9.55-11.45-14.32-25-14.32-40.65c0-16.39,4.88-30.01,14.63-40.85
		c9.75-10.84,22.98-16.26,39.7-16.26c15.01,0,27.6,4.73,37.77,14.18V29.73h13.7v36.61h-13.7c-2.58-6.14-7.16-11.6-13.74-16.38
		c-6.58-4.78-14.1-7.17-22.56-7.17c-11.76,0-21.05,4.11-27.86,12.34c-6.81,8.22-10.21,18.13-10.21,29.72
		c0,13.3,3.88,23.84,11.65,31.64c7.76,7.8,17.12,11.69,28.05,11.69c8.56,0,16.2-2.47,22.91-7.41c6.71-4.94,10.63-11.41,11.76-19.42
		h-19.42V87.4z"/>
	<path d="M1070.61,127.21V43.67h-13.93V29.73h89.46v33.56h-13.31V43.67h-45.97v33.16h40.01v13.94h-40.01v36.44h45.97v-20.27h13.31
		v34.2h-89.46v-13.94H1070.61z"/>
	<path d="M1188.78,127.21V43.67h-22.21V72.1h-13.31V29.73h87.22V72.1h-13.31V43.67h-22.13v83.54h14.01v13.94H1175v-13.94H1188.78z"
		/>
	<path d="M1289.77,84.92c0-16.18,5.11-29.72,15.32-40.61c10.21-10.89,23.53-16.34,39.93-16.34c16.56,0,30.05,5.45,40.47,16.34
		c10.42,10.89,15.63,24.54,15.63,40.93c0,16.71-5.3,30.5-15.9,41.37c-10.6,10.87-24.08,16.3-40.44,16.3c-10.42,0-20-2.58-28.75-7.73
		c-8.75-5.15-15.31-12.34-19.7-21.55C1291.96,104.42,1289.77,94.85,1289.77,84.92z M1307.49,85c0,12.23,3.46,22.48,10.37,30.76
		c6.91,8.28,15.99,12.42,27.24,12.42c11.14,0,20.3-4.23,27.47-12.7c7.17-8.46,10.76-18.57,10.76-30.32
		c0-11.85-3.65-21.88-10.95-30.08c-7.3-8.2-16.47-12.3-27.51-12.3c-10.99,0-19.97,4.03-26.93,12.1
		C1310.97,62.94,1307.49,72.98,1307.49,85z"/>
	<path d="M1425.12,127.21V43.67h-15.4V29.73h36.75l47.22,86.61V43.67h-15.25V29.73h44.19v13.94h-15.86v98.6h-16.68l-51.65-95.1
		v80.04h15.4v13.94h-44.11v-13.94H1425.12z"/>
	<path d="M1541.21,127.21V43.67h-13.93V29.73h89.46v33.56h-13.31V43.67h-45.97v33.16h40.01v13.94h-40.01v36.44h45.97v-20.27h13.31
		v34.2h-89.46v-13.94H1541.21z"/>
</g>
<g>
	<path d="M6.06,706.82c0-12.67,3.92-23.28,11.77-31.81s18.07-12.8,30.67-12.8c12.72,0,23.08,4.27,31.09,12.8
		c8,8.53,12.01,19.22,12.01,32.06c0,13.09-4.07,23.89-12.22,32.4c-8.14,8.51-18.5,12.77-31.06,12.77c-8.01,0-15.37-2.02-22.08-6.05
		c-6.72-4.04-11.76-9.66-15.13-16.88C7.75,722.1,6.06,714.6,6.06,706.82z M19.68,706.89c0,9.58,2.65,17.61,7.97,24.09
		c5.31,6.48,12.29,9.72,20.93,9.72c8.56,0,15.59-3.31,21.1-9.94c5.51-6.63,8.26-14.54,8.26-23.75c0-9.29-2.8-17.14-8.41-23.56
		c-5.61-6.42-12.65-9.63-21.13-9.63c-8.44,0-15.34,3.16-20.69,9.47C22.35,689.61,19.68,697.47,19.68,706.89z"/>
	<path d="M110.27,739.95v-65.44H99.81V663.6h64.14v26.29h-10.22v-15.37h-30.97v25.85h26.69v10.92h-26.69v28.67h10.58v10.92H99.81
		v-10.92H110.27z"/>
	<path d="M209.25,739.95v-65.44h-10.7V663.6h68.72v26.29h-10.22v-15.37h-35.31v25.97h30.73v10.92h-30.73v28.55h35.31v-15.87h10.22
		v26.79h-68.72v-10.92H209.25z"/>
	<path d="M325.77,751.81l2.44,1.13c6.46,2.8,11.43,4.2,14.92,4.2c1.11,0,2.56-0.19,4.34-0.56l-4.4,10.79
		c-1.19,0.21-2.28,0.31-3.27,0.31c-3.92,0-9.33-1.76-16.23-5.29c-5.94-3.02-10.62-4.53-14.03-4.53c-3.53,0-6.36,1.03-8.5,3.1
		l-3.51-5.33c2.34-2.68,5.39-4.43,9.15-5.27c-6.66-2.22-12.3-5.78-16.91-10.7c-4.62-4.91-7.84-10.2-9.66-15.87
		c-1.82-5.67-2.73-11.3-2.73-16.91c0-12.34,3.86-22.87,11.59-31.59s18.01-13.08,30.85-13.08c12.84,0,23.22,4.25,31.15,12.74
		c7.93,8.49,11.89,19.2,11.89,32.12c0,6.86-1.25,13.39-3.75,19.61s-6.78,11.79-12.84,16.72
		C340.21,748.33,333.38,751.14,325.77,751.81z M290.99,706.89c0,9.58,2.65,17.61,7.97,24.09c5.31,6.48,12.29,9.72,20.93,9.72
		c8.56,0,15.59-3.31,21.1-9.94c5.51-6.63,8.26-14.54,8.26-23.75c0-9.29-2.8-17.14-8.41-23.56c-5.61-6.42-12.65-9.63-21.13-9.63
		c-8.44,0-15.34,3.16-20.69,9.47C293.67,689.61,290.99,697.47,290.99,706.89z"/>
	<path d="M389.61,674.51v43.67c0,6.78,0.33,11.46,0.98,14.05c0.65,2.59,2.29,4.8,4.9,6.62s5.98,2.73,10.11,2.73
		c4.91,0,8.68-0.78,11.29-2.35s4.35-3.68,5.2-6.34c0.85-2.66,1.28-7.35,1.28-14.08v-44.29h-9.57V663.6h32.34v10.92H435.8v45.61
		c0,6.15-0.25,10.61-0.74,13.39c-0.5,2.78-1.83,5.69-4.01,8.72c-2.18,3.03-5.25,5.46-9.21,7.28c-3.96,1.82-8.78,2.73-14.45,2.73
		c-6.26,0-11.47-0.85-15.63-2.54c-4.16-1.69-7.29-3.96-9.39-6.81c-2.1-2.84-3.5-5.88-4.19-9.1c-0.69-3.22-1.04-8.22-1.04-15v-44.29
		H366.9V663.6h32.52v10.92H389.61z"/>
	<path d="M502.36,720.19h-29.79l-6.33,19.76h10.05v10.92h-32.58v-10.92h10.01l22.58-66.5h-9.99v-9.85h42.27v9.85h-10.34l23.14,66.5
		h9.25v10.92h-32.4v-10.92h10.28L502.36,720.19z M499.24,709.96l-11-36.51h-1.13l-11.46,36.51H499.24z"/>
	<path d="M542.09,739.95v-65.44h-10.7V663.6h33.83v10.92h-10.17v65.44h25.32v-29.68h11.65v40.59h-60.64v-10.92H542.09z"/>
	<path d="M629.6,706.82c0-12.67,3.92-23.28,11.77-31.81s18.07-12.8,30.67-12.8c12.72,0,23.08,4.27,31.09,12.8
		c8,8.53,12.01,19.22,12.01,32.06c0,13.09-4.07,23.89-12.22,32.4c-8.14,8.51-18.5,12.77-31.06,12.77c-8.01,0-15.37-2.02-22.08-6.05
		c-6.72-4.04-11.76-9.66-15.13-16.88C631.28,722.1,629.6,714.6,629.6,706.82z M643.21,706.89c0,9.58,2.65,17.61,7.97,24.09
		c5.31,6.48,12.29,9.72,20.93,9.72c8.56,0,15.59-3.31,21.1-9.94c5.51-6.63,8.26-14.54,8.26-23.75c0-9.29-2.8-17.14-8.41-23.56
		c-5.61-6.42-12.65-9.63-21.13-9.63c-8.44,0-15.34,3.16-20.69,9.47C645.89,689.61,643.21,697.47,643.21,706.89z"/>
	<path d="M734.05,739.95v-65.44h-11.35V663.6h33.59c7.01,0,12.58,0.58,16.7,1.73c4.12,1.15,7.53,3.58,10.23,7.28
		c2.69,3.7,4.04,8.31,4.04,13.83c0,11.54-5.68,18.8-17.04,21.77l14.61,31.75h10.11v10.92h-17.91l-18.83-40.78h-11.65v29.86h10.58
		v10.92h-34.42v-10.92H734.05z M746.53,699.17h9.75c4.72,0,8.19-0.32,10.43-0.97c2.24-0.65,4.07-1.97,5.5-3.95s2.14-4.65,2.14-8
		c0-2.84-0.72-5.25-2.17-7.21c-1.45-1.96-3.23-3.21-5.35-3.73c-2.12-0.52-5.36-0.78-9.72-0.78h-10.58V699.17z"/>
	<path d="M837.54,739.95v-65.44h-10.7V663.6h33.83v10.92H850.5v65.44h25.32v-29.68h11.65v40.59h-60.64v-10.92H837.54z"/>
	<path d="M902.58,739.95v-65.44h-10.7V663.6h68.72v26.29h-10.22v-15.37h-35.31v25.97h30.73v10.92h-30.73v28.55h35.31v-15.87h10.22
		v26.79h-68.72v-10.92H902.58z"/>
	<path d="M968.86,750.87v-31.68h10.34v7.72c4.95,9.5,11.43,14.24,19.44,14.24c4.08,0,7.53-1.32,10.34-3.95
		c2.81-2.64,4.22-6.09,4.22-10.35c0-4.14-1.15-7.12-3.45-8.94c-2.3-1.82-6.64-3.63-13.02-5.43c-7.41-2.09-12.9-4.07-16.47-5.93
		c-3.57-1.86-6.41-4.52-8.53-7.97c-2.12-3.45-3.18-7.54-3.18-12.26c0-7.32,2.31-13.17,6.92-17.54c4.62-4.37,10.41-6.56,17.39-6.56
		c6.62,0,12.76,2.26,18.43,6.78v-5.83h10.11v26.48h-10.11v-6.09c-4.24-6.73-10.09-10.1-17.54-10.1c-4.52,0-7.99,1.1-10.4,3.29
		c-2.42,2.2-3.63,4.82-3.63,7.87c0,2.34,0.61,4.4,1.84,6.18c1.23,1.78,2.79,3.08,4.7,3.92c1.9,0.84,5.65,2.01,11.24,3.51
		c7.29,2,12.58,3.87,15.87,5.61c3.29,1.74,6.12,4.63,8.5,8.69c2.38,4.06,3.57,8.72,3.57,13.99c0,7.45-2.49,13.6-7.46,18.45
		c-4.97,4.85-11.13,7.28-18.46,7.28c-7.53,0-14.31-2.86-20.33-8.59v7.21H968.86z"/>
	<path d="M1033.48,750.87v-31.68h10.34v7.72c4.95,9.5,11.43,14.24,19.44,14.24c4.08,0,7.53-1.32,10.34-3.95
		c2.81-2.64,4.22-6.09,4.22-10.35c0-4.14-1.15-7.12-3.45-8.94c-2.3-1.82-6.64-3.63-13.02-5.43c-7.41-2.09-12.9-4.07-16.47-5.93
		c-3.57-1.86-6.41-4.52-8.53-7.97c-2.12-3.45-3.18-7.54-3.18-12.26c0-7.32,2.31-13.17,6.92-17.54c4.62-4.37,10.41-6.56,17.39-6.56
		c6.62,0,12.76,2.26,18.43,6.78v-5.83h10.11v26.48h-10.11v-6.09c-4.24-6.73-10.09-10.1-17.54-10.1c-4.52,0-7.99,1.1-10.4,3.29
		c-2.42,2.2-3.63,4.82-3.63,7.87c0,2.34,0.61,4.4,1.84,6.18c1.23,1.78,2.79,3.08,4.7,3.92c1.9,0.84,5.65,2.01,11.24,3.51
		c7.29,2,12.58,3.87,15.87,5.61c3.29,1.74,6.12,4.63,8.5,8.69c2.38,4.06,3.57,8.72,3.57,13.99c0,7.45-2.49,13.6-7.46,18.45
		c-4.97,4.85-11.13,7.28-18.46,7.28c-7.53,0-14.31-2.86-20.33-8.59v7.21H1033.48z"/>
	<path d="M1107.91,739.95v-65.44h-10.7V663.6h68.72v26.29h-10.22v-15.37h-35.31v25.97h30.73v10.92h-30.73v28.55h35.31v-15.87h10.22
		v26.79h-68.72v-10.92H1107.91z"/>
	<path d="M1182.87,739.95v-65.44h-11.35V663.6h33.59c7.01,0,12.58,0.58,16.71,1.73c4.12,1.15,7.53,3.58,10.22,7.28
		c2.69,3.7,4.04,8.31,4.04,13.83c0,11.54-5.68,18.8-17.04,21.77l14.61,31.75h10.11v10.92h-17.91L1207,710.08h-11.65v29.86h10.58
		v10.92h-34.42v-10.92H1182.87z M1195.35,699.17h9.75c4.72,0,8.19-0.32,10.43-0.97s4.07-1.97,5.5-3.95s2.14-4.65,2.14-8
		c0-2.84-0.72-5.25-2.17-7.21c-1.45-1.96-3.23-3.21-5.35-3.73c-2.12-0.52-5.36-0.78-9.72-0.78h-10.58V699.17z"/>
	<path d="M1301.97,751.74l-27.78-77.23h-10.23V663.6h32.64v10.92h-9.55l21.06,58.6l20.5-58.6h-9.65V663.6h31.75v10.92h-10.04
		l-27.21,77.23H1301.97z"/>
	<path d="M1400.77,720.19h-29.79l-6.33,19.76h10.05v10.92h-32.58v-10.92h10.01l22.58-66.5h-9.99v-9.85h42.27v9.85h-10.34l23.14,66.5
		h9.25v10.92h-32.4v-10.92h10.28L1400.77,720.19z M1397.66,709.96l-11-36.51h-1.13l-11.46,36.51H1397.66z"/>
	<path d="M1440.51,739.95v-65.44h-10.7V663.6h33.83v10.92h-10.17v65.44h25.32v-29.68h11.65v40.59h-60.64v-10.92H1440.51z"/>
	<path d="M1515.83,674.51v43.67c0,6.78,0.33,11.46,0.98,14.05c0.65,2.59,2.29,4.8,4.9,6.62c2.62,1.82,5.98,2.73,10.11,2.73
		c4.91,0,8.68-0.78,11.29-2.35s4.35-3.68,5.2-6.34c0.85-2.66,1.28-7.35,1.28-14.08v-44.29h-9.57V663.6h32.34v10.92h-10.34v45.61
		c0,6.15-0.25,10.61-0.74,13.39c-0.5,2.78-1.83,5.69-4.01,8.72c-2.18,3.03-5.25,5.46-9.21,7.28c-3.96,1.82-8.78,2.73-14.45,2.73
		c-6.26,0-11.47-0.85-15.63-2.54c-4.16-1.69-7.29-3.96-9.39-6.81c-2.1-2.84-3.5-5.88-4.19-9.1s-1.04-8.22-1.04-15v-44.29h-10.22
		V663.6h32.52v10.92H1515.83z"/>
	<path d="M1587.94,739.95v-65.44h-10.7V663.6h68.72v26.29h-10.22v-15.37h-35.31v25.97h30.73v10.92h-30.73v28.55h35.31v-15.87h10.22
		v26.79h-68.72v-10.92H1587.94z"/>
</g>
<g>
	<path d="M446.46,839.9l-4.99-49.24h-0.15l-4.76,49.24h-6.75l-7.83-64.28h6.22l4.84,48.16h0.15l4.83-48.16h6.91l4.91,48.16h0.15
		l4.76-48.16h6.22l-7.68,64.28H446.46z"/>
	<path d="M466.41,839.9v-64.28h6.22v64.28H466.41z"/>
	<path d="M486.36,839.9v-57.56h-8.98v-6.71h24.1v6.71h-8.9v57.56H486.36z"/>
	<path d="M523.36,839.9v-30.35h-10.98v30.35h-6.22v-64.28h6.22v27.3h10.98v-27.3h6.14v64.28H523.36z"/>
	<path d="M568.41,839.9l-2.38-17.82h-10.9l-2.38,17.82h-6.29l9.67-64.28h8.75l9.82,64.28H568.41z M555.97,815.55h9.13l-4.45-33.57
		h-0.23L555.97,815.55z"/>
	<path d="M591.43,839.9v-64.28h9.21c10.05,0,15.2,5.55,15.2,17.9s-5.68,18.44-14.74,18.44h-3.45v27.93H591.43z M601.41,805.43
		c5.99,0,7.98-5.19,7.98-11.82c0-8.42-2.84-11.28-8.44-11.28h-3.3v23.1H601.41z"/>
	<path d="M638.24,775.62h6.22v49.33c0,10.74-3.84,15.58-11.74,15.58s-11.67-4.83-11.67-15.58v-49.33h6.22v50.13
		c0,6.27,2,8.5,5.45,8.5c3.53,0,5.53-2.24,5.53-8.5V775.62z"/>
	<path d="M670.02,839.9l-7.14-29.18h-4.6v29.18h-6.22v-64.28h9.13c9.9,0,14.66,4.83,14.66,16.47c0,8.33-2.69,13.7-7.21,15.94
		l8.14,31.87H670.02z M662.26,804.36c4.6,0,7.14-3.04,7.14-11.64c0-8.42-2.76-10.74-8.67-10.74h-2.46v22.38H662.26z"/>
	<path d="M706.16,817.61c-0.38,14.5-3.76,23.01-12.28,23.01c-9.82,0-12.97-11.19-12.97-33.03c0-19.87,2.76-32.68,12.97-32.68
		c8.37,0,11.67,8.15,11.97,20.95h-5.83c-0.46-9.49-2.3-14.14-6.06-14.14c-4.91,0-6.52,7.61-6.52,25.87
		c0,19.07,1.69,26.32,6.52,26.32c4.22,0,5.99-5.64,6.37-16.29H706.16z"/>
	<path d="M729.57,839.9v-30.35h-10.98v30.35h-6.22v-64.28h6.22v27.3h10.98v-27.3h6.14v64.28H729.57z"/>
	<path d="M763.03,839.9l-2.38-17.82h-10.9l-2.38,17.82h-6.29l9.67-64.28h8.75l9.82,64.28H763.03z M750.6,815.55h9.13l-4.45-33.57
		h-0.23L750.6,815.55z"/>
	<path d="M789.51,792.81c-0.31-7.43-2-11.46-5.76-11.46c-3.45,0-4.99,2.69-4.99,7.34c0,14.95,17.04,17.19,17.04,36.26
		c0,9.67-4.22,15.67-11.9,15.67c-7.83,0-11.13-5.73-11.67-17.55l5.83-0.27c0.54,8.15,2.07,11.37,5.99,11.37
		c3.61,0,5.68-3.22,5.68-8.42c0-15.49-16.96-17.82-16.96-36.35c0-8.95,3.91-14.5,10.82-14.5c7.98,0,11.13,6.54,11.51,17.64
		L789.51,792.81z"/>
	<path d="M801.63,839.9v-64.28h20.65v6.71h-14.43v20.95h11.13v6.62h-11.13v23.28h15.35v6.71H801.63z"/>
	<path d="M838.32,807.58c0-23.28,3.76-32.68,13.05-32.68s12.97,9.4,12.97,32.68c0,22.47-3.68,33.03-12.97,33.03
		S838.32,830.05,838.32,807.58z M857.89,807.58c0-18.8-1.84-26.05-6.52-26.05c-4.76,0-6.52,7.25-6.52,26.05
		c0,18.71,2.07,26.5,6.52,26.5C855.82,834.08,857.89,826.29,857.89,807.58z"/>
	<path d="M870.78,839.9v-64.28h20.65v6.71H877v20.95h11.13v6.62H877v29.99H870.78z"/>
	<path d="M916.6,850.38v-10.92c-6.68-0.81-10.05-6.45-10.44-17.37l5.45-0.27c0.38,7.07,1.92,10.47,4.99,11.37v-23.81
		c-4.83-4.75-9.9-9.76-9.9-19.07c0-8.42,3.76-13.61,9.9-14.23v-6.36h3.92v6.54c6.06,1.25,8.83,7.16,9.21,15.04l-5.22,0.45
		c-0.31-4.39-1.46-7.79-3.99-9.04v21.4c4.83,4.83,9.98,10.21,9.98,19.96c0,8.95-3.91,14.32-9.98,15.31v11.01H916.6z M916.6,800.15
		v-17.91c-2.92,0.63-4.6,3.31-4.6,7.52C911.99,793.98,913.91,797.2,916.6,800.15z M920.51,813.49v19.7c2.76-0.99,4.6-3.85,4.6-8.5
		C925.12,819.94,923.12,816.54,920.51,813.49z"/>
	<path d="M939.24,839.9v-6.09h6.29v-50.4l-6.98,1.52v-5.46l8.14-3.85h4.76v58.19h6.14v6.09H939.24z"/>
	<path d="M976.69,840.62c-6.52,0-10.75-4.83-11.36-16.11l5.6-0.54c0.46,6.89,2.38,10.3,5.76,10.3c4.45,0,6.45-5.46,6.45-16.11
		c0-10.38-2.07-15.22-6.14-15.22c-2.38,0-4.14,1.79-5.37,5.37l-5.14-0.45l1.84-32.23h18.34v6.45h-13.58l-1.15,17.46l0.15,0.09
		c1.61-1.61,3.68-2.78,6.14-2.78c6.98,0,11.05,7.25,11.05,21.13C989.28,832.65,984.98,840.62,976.69,840.62z"/>
	<path d="M1009.46,799.53l-4.61-8.77l-4.68,8.95l-3.53-3.13l5.76-7.88l-8.75-2.42l1.38-4.92l8.21,4.03l-0.77-10.47h4.45l-0.77,10.47
		l8.37-4.12l1.23,5.01l-8.6,2.42l5.83,7.88L1009.46,799.53z"/>
	<path d="M1031.41,807.58c0-23.28,3.76-32.68,13.05-32.68s12.97,9.4,12.97,32.68c0,22.47-3.68,33.03-12.97,33.03
		S1031.41,830.05,1031.41,807.58z M1050.98,807.58c0-18.8-1.84-26.05-6.52-26.05c-4.76,0-6.52,7.25-6.52,26.05
		c0,18.71,2.07,26.5,6.52,26.5S1050.98,826.29,1050.98,807.58z"/>
	<path d="M1081.83,839.9l-7.14-29.18h-4.61v29.18h-6.22v-64.28h9.13c9.9,0,14.66,4.83,14.66,16.47c0,8.33-2.69,13.7-7.21,15.94
		l8.13,31.87H1081.83z M1074.08,804.36c4.61,0,7.14-3.04,7.14-11.64c0-8.42-2.76-10.74-8.67-10.74h-2.46v22.38H1074.08z"/>
	<path d="M1132.33,839.9v-52.01h-0.15l-8.14,52.01h-4.38l-8.21-52.01h-0.15v52.01h-5.53v-64.28h8.9l7.14,45.48h0.15l7.14-45.48h8.83
		v64.28H1132.33z"/>
	<path d="M1144.22,807.58c0-23.28,3.76-32.68,13.05-32.68s12.97,9.4,12.97,32.68c0,22.47-3.68,33.03-12.97,33.03
		S1144.22,830.05,1144.22,807.58z M1163.79,807.58c0-18.8-1.84-26.05-6.52-26.05c-4.76,0-6.52,7.25-6.52,26.05
		c0,18.71,2.07,26.5,6.52,26.5C1161.72,834.08,1163.79,826.29,1163.79,807.58z"/>
	<path d="M1194.64,839.9l-7.14-29.18h-4.61v29.18h-6.22v-64.28h9.13c9.9,0,14.66,4.83,14.66,16.47c0,8.33-2.69,13.7-7.21,15.94
		l8.13,31.87H1194.64z M1186.89,804.36c4.61,0,7.14-3.04,7.14-11.64c0-8.42-2.76-10.74-8.67-10.74h-2.46v22.38H1186.89z"/>
	<path d="M1207,839.9v-64.28h20.65v6.71h-14.43v20.95h11.13v6.62h-11.13v23.28h15.35v6.71H1207z"/>
</g>
<g>
</g>
<g>
</g>
<g>
</g>
<g>
</g>
<g>
</g>
<g>
</g>
<g>
</g>
<g>
</g>
<g>
</g>
<g>
</g>
<g>
</g>
<g>
</g>
<g>
</g>
<g>
</g>
<g>
</g>
</svg>
