<?xml version="1.0" encoding="utf-8"?>
<!-- Generator: Adobe Illustrator 29.3.1, SVG Export Plug-In . SVG Version: 9.03 Build 55982)  -->
<svg version="1.1" id="Layer_1" xmlns="http://www.w3.org/2000/svg" xmlns:xlink="http://www.w3.org/1999/xlink" x="0px" y="0px"
	 viewBox="0 0 1650 769" style="enable-background:new 0 0 1650 769;" xml:space="preserve">
<g>
	<path d="M22.77,545.78v-89.64h58.72v-351.3H22.77V15.22h367.36v163.63h-78.49v-74H188.31v122.82h88.82v89.64h-88.82v138.84h63.15
		v89.64H22.77z"/>
	<path d="M837.76,456.15v89.64H712.72l-92.68-232.29h-46.97v142.65h51.34v89.64H409.9v-89.64h56.36v-351.3H409.9V15.22h247.56
		c46.62,0,80.21,15.2,100.77,45.58c20.55,30.39,30.83,64.78,30.83,103.18c0,60.27-23.71,104.26-71.11,131.97l66.69,160.2H837.76z
		 M573.08,228.82h36.59c45.24,0,67.87-20.85,67.87-62.55c0-20.6-5.16-35.98-15.49-46.15c-10.33-10.17-24.54-15.26-42.64-15.26
		h-46.33V228.82z"/>
	<path d="M856.64,545.78v-89.64h49.28v-351.3h-49.28V15.22h361.76v168.21h-78.49v-78.57h-127.18v122.44h102.68v89.64h-102.68v139.22
		h127.18v-79.34h78.49v168.97H856.64z"/>
	<path d="M1259.71,545.78v-89.64h49.28v-351.3h-49.28V15.22h361.76v168.21h-78.49v-78.57H1415.8v122.44h102.68v89.64H1415.8v139.22
		h127.18v-79.34h78.49v168.97H1259.71z"/>
</g>
<g>
	<path d="M207.38,637.04l-6.66-55.93h-0.24l-6.17,55.93h-13.67l-12.95-81.29h12.95l6.53,54.91h0.24l6.66-54.91h13.31l7.02,54.91
		h0.24l6.17-54.91h12.95l-12.46,81.29H207.38z"/>
	<path d="M240.78,637.04v-81.29h13.31v81.29H240.78z"/>
	<path d="M273.81,637.04v-69.86h-13.07v-11.44h39.33v11.44h-12.95v69.86H273.81z"/>
	<path d="M334.19,637.04v-36.68h-14.28v36.68h-13.19v-81.29h13.19v33.51h14.28v-33.51h13.07v81.29H334.19z"/>
	<path d="M381.86,629.46c4.48,0,7.38,0,9.2-4.3l27.23-66.91h13.19l27.71,68.04c1.21,2.94,5.08,3.17,8.23,3.17h1.94v7.59h-36.18
		v-7.59h7.5c2.3,0,3.15-2.04,3.15-3.74c0-0.57-0.12-0.91-5.32-14.15h-32.67c-3.27,9.28-4.96,13.36-4.96,14.49
		c0,3.17,2.9,3.4,8.59,3.4h2.3v7.59h-30.86v-7.59H381.86z M435.22,603.98l-11.5-29.1l-1.33-5.77l-1.57,5.89l-11.74,28.98H435.22z"/>
	<path d="M530.57,625.83c0,3.17,1.33,4.3,3.75,4.3h6.17v6.91h-21.54v-6.23l1.33-6.11c-4.72,7.7-11.5,13.7-20.81,13.7
		c-19.36,0-28.56-13.02-28.56-29.55c0-16.87,8.83-32.16,27.47-32.16c8.83,0,15.49,1.7,19.48,9.06v-23.66c0-2.38-1.57-2.94-2.9-2.94
		h-7.99v-6.45l23.6-1.92V625.83z M502.01,630.7c8.23,0,16.33-9.96,16.33-19.02v-10.08c0-9.4-5.32-17.1-17.91-17.1
		c-13.19,0-15.12,14.38-15.12,24.34C485.32,619.49,488.1,630.7,502.01,630.7z"/>
	<path d="M550.05,588.36c-0.24-0.91-1.21-3.17-3.87-3.17h-5.69v-6.45h33.28v6.45h-8.35c-1.33,0-1.94,0.91-1.94,2.04
		c0,1.47,5.08,13.7,14.64,37.7c8.23-19.47,15.25-37.14,15.25-37.93c0-1.13-0.6-1.81-1.81-1.81h-8.83v-6.45H612v6.45h-6.17
		c-1.57,0-2.9,2.6-3.39,3.74L582,637.61h-11.98L550.05,588.36z"/>
	<path d="M675.53,636.82c-3.87,1.36-7.02,1.81-10.41,1.81c-7.87,0-10.53-4.3-11.01-10.64c-3.27,7.59-13.19,10.87-21.18,10.87
		c-10.41,0-18.51-5.21-18.51-15.62c0-10.87,8.59-16.19,18.76-19.47c6.78-2.15,13.07-3.51,20.33-4.42v-4.98
		c0-7.93-6.66-10.64-13.31-10.64c-4.11,0-8.23,1.02-10.41,2.6c2.54,1.25,3.75,3.06,3.75,5.55c0,4.3-3.39,6.91-7.5,6.91
		c-5.57,0-8.35-3.4-8.35-8.26c0-11.21,15.25-13.93,24.2-13.93c10.65,0,24.32,3.28,24.32,15.29v34.65c0,3.28,0.6,4.75,3.75,4.75
		c1.81,0,3.75-0.68,5.57-1.47V636.82z M636.08,629.68c9.68,0,17.42-6.45,17.42-15.62v-7.81c-3.51,0-25.77,3.62-25.77,14.83
		C627.73,625.83,631,629.68,636.08,629.68z"/>
	<path d="M681.82,637.04v-6.91h6.66c1.21,0,3.51-0.68,3.51-4.3v-37.59c0-2.38-1.69-2.94-2.9-2.94h-7.99v-6.45l23.96-1.92v6.79
		l-1.33,5.89c4.96-8.49,12.34-13.02,22.14-13.02c9.68,0,19.97,5.43,19.97,15.4v34.87c0,1.47,1.45,3.28,3.27,3.28h7.02v6.91h-32.31
		v-6.91h5.81c1.81,0,3.39-1.36,3.39-2.94V594.7c0-6.11-5.57-9.06-11.37-9.06c-8.11,0-16.58,6.57-16.58,14.61v25.59
		c0,3.17,1.33,4.3,3.63,4.3h6.65v6.91H681.82z"/>
	<path d="M797.74,578.73v6.45h-14.16v40.19c0,4.19,1.69,5.21,6.41,5.21c2.78,0,5.32-0.34,9.32-1.13v6.91
		c-6.29,1.47-9.56,2.15-15.61,2.15c-5.93,0-9.8-1.36-11.5-3.96c-1.21-1.81-1.69-4.08-1.69-9.74v-39.63h-10.65v-6.45
		c12.46-0.11,14.76-7.47,14.76-23.1h8.95v23.1H797.74z"/>
	<path d="M834.04,566.17v26.04h13.67c4.6,0,7.38-3.17,7.38-6.68v-7.7h7.02v37.48h-7.14v-4.42c0-5.32-0.85-10.76-7.74-10.76h-13.19
		v29.1h29.52c12.58,0,13.67-12.34,14.16-24.34h7.62v32.15h-78.65v-7.59h9.2c2.42,0,4.24-1.92,4.24-4.19v-54.91
		c0-3.06-1.81-4.19-4.24-4.19h-9.2v-7.59h77.44v29.1h-7.62c-0.48-9.17-1.57-21.51-14.16-21.51H834.04z"/>
	<path d="M954.31,625.83c0,3.17,1.33,4.3,3.75,4.3h6.17v6.91H942.7v-6.23l1.33-6.11c-4.72,7.7-11.5,13.7-20.81,13.7
		c-19.36,0-28.56-13.02-28.56-29.55c0-16.87,8.83-32.16,27.47-32.16c8.83,0,15.49,1.7,19.48,9.06v-23.66c0-2.38-1.57-2.94-2.9-2.94
		h-7.99v-6.45l23.6-1.92V625.83z M925.75,630.7c8.23,0,16.34-9.96,16.34-19.02v-10.08c0-9.4-5.32-17.1-17.91-17.1
		c-13.19,0-15.12,14.38-15.12,24.34C909.06,619.49,911.84,630.7,925.75,630.7z"/>
	<path d="M980.08,638.51c-6.05-1.58-10.16-5.32-10.16-11.55c0-7.36,5.32-10.87,11.98-14.15c-4.84-4.08-7.14-8.94-7.14-15.17
		c0-14.38,13.67-21.06,27.59-21.06c5.81,0,12.71,1.47,17.79,4.53l5.2-3.17h12.58v7.7h-13.43c4.11,4.19,4.96,8.27,4.96,12.79
		c0,14.38-13.67,20.04-27.1,20.04c-5.08,0-9.92-0.68-14.16-2.15c-3.39,0-6.29,3.62-6.29,6.57c0,3.4,1.94,5.89,5.69,5.89
		c3.27,0,11.74-1.59,17.06-1.59c11.98,0,15.97,0.91,19.24,1.7c7.74,1.92,13.19,6,13.19,14.83c0,18-22.39,22.87-37.51,22.87
		c-10.41,0-29.89-2.6-29.89-15.96C969.68,644.52,973.67,640.89,980.08,638.51z M1001.5,659.01c7.26,0,23.72-1.58,23.72-11.78
		c0-4.64-3.27-6.57-7.26-7.36c-2.78-0.57-10.53-1.36-14.04-1.36c-3.27,0-11.25,0.79-13.19,1.25c-3.87,0.91-8.71,2.04-8.71,9.17
		C982.02,657.88,994.24,659.01,1001.5,659.01z M1002.35,611.34c9.2,0,12.83-5.43,12.83-13.7c0-8.49-3.63-13.93-13.19-13.93
		c-8.83,0-12.83,6.11-12.83,13.7C989.16,605.68,993.15,611.34,1002.35,611.34z"/>
	<path d="M1074.59,576.58c20.93,0,29.52,14.04,29.52,32.49h-46.46c0,16.42,8.71,21.4,19,21.4c15.49,0,18.63-13.02,18.63-13.02h8.11
		c0,8.26-10.29,21.29-28.44,21.29c-21.05,0-31.94-13.13-31.94-30.91C1043,590.17,1054.98,576.58,1074.59,576.58z M1058.01,601.49
		h30.73c0-8.94-3.51-17.32-14.64-17.32C1063.7,584.17,1058.01,592.21,1058.01,601.49z"/>
	<path d="M1169.08,637.04l-9.32-34.53h-5.81v34.53h-13.19v-81.29h17.42c15.37,0,23.35,5.77,23.35,21.62
		c0,10.19-3.87,16.42-10.04,19.47l11.86,40.19H1169.08z M1158.07,591.98c6.53,0,9.68-3.28,9.68-13.25c0-11.21-4.6-12.34-10.89-12.34
		h-2.9v25.59H1158.07z"/>
	<path d="M1190.62,637.04v-81.29h35.33v11.44h-22.14v22.3h17.42v11.1h-17.42v25.02h23.47v11.44H1190.62z"/>
	<path d="M1270.72,637.04l-6.66-55.93h-0.24l-6.17,55.93h-13.67l-12.95-81.29h12.95l6.53,54.91h0.24l6.65-54.91h13.31l7.02,54.91
		h0.24l6.17-54.91h12.95l-12.46,81.29H1270.72z"/>
	<path d="M1328.8,637.04l-3.03-20.38h-14.4l-2.9,20.38h-13.43l14.52-81.29h17.67l14.88,81.29H1328.8z M1312.95,605.68h11.25
		l-5.44-37.25h-0.48L1312.95,605.68z"/>
	<path d="M1377.2,637.04l-9.32-34.53h-5.81v34.53h-13.19v-81.29h17.42c15.37,0,23.35,5.77,23.35,21.62
		c0,10.19-3.87,16.42-10.04,19.47l11.86,40.19H1377.2z M1366.19,591.98c6.53,0,9.68-3.28,9.68-13.25c0-11.21-4.6-12.34-10.89-12.34
		h-2.9v25.59H1366.19z"/>
	<path d="M1398.74,637.04v-81.29h14.28c20.57,0,29.28,9.74,29.28,39.85c0,26.72-5.57,41.44-27.71,41.44H1398.74z M1415.44,625.38
		c9.56,0,13.07-8.72,13.07-29.78c0-22.42-4.48-28.19-14.04-28.19h-2.06v57.97H1415.44z"/>
	<path d="M1475.33,577.6c-0.36-7.13-2.42-12-7.62-12c-4.48,0-6.29,2.72-6.29,7.13c0,17.32,26.86,20.83,26.86,44.95
		c0,12.57-7.5,20.27-20.57,20.27c-13.92,0-19-7.59-19.84-22.08l12.22-0.68c0.73,8.49,2.54,12.23,7.87,12.23
		c4.6,0,7.26-3.28,7.26-8.72c0-17.78-26.5-21.4-26.5-44.83c0-11.55,6.53-19.02,18.75-19.02c14.28,0,18.88,9.06,19.72,22.08
		L1475.33,577.6z"/>
</g>
<g>
</g>
<g>
</g>
<g>
</g>
<g>
</g>
<g>
</g>
<g>
</g>
<g>
</g>
<g>
</g>
<g>
</g>
<g>
</g>
<g>
</g>
<g>
</g>
<g>
</g>
<g>
</g>
<g>
</g>
</svg>
